# This file uses centimeters as units for non-parametric coordinates.

mtllib Grass.mtl
g default
v 1.475427 -0.710021 4.066302
v 1.514897 -0.710021 4.051344
v 1.496635 -0.710021 4.011241
v 1.457165 -0.710021 4.026005
v 1.482787 -0.609330 4.086368
v 1.521512 -0.609330 4.077037
v 1.503250 -0.609330 4.037138
v 1.464525 -0.609330 4.046328
v 1.479157 -0.522059 4.089163
v 1.513750 -0.522088 4.085694
v 1.497821 -0.522059 4.050376
v 1.463245 -0.522174 4.053882
v 1.469065 -0.434007 4.076279
v 1.497404 -0.434007 4.074415
v 1.484626 -0.434007 4.046340
v 1.456036 -0.434007 4.048747
v 1.465305 -0.345284 4.059125
v 1.490336 -0.345061 4.055852
v 1.479449 -0.345061 4.031506
v 1.454430 -0.345114 4.034849
v 1.466157 -0.280172 4.058775
v 1.484726 -0.277775 4.052184
v 1.476753 -0.275321 4.035185
v 1.458901 -0.276579 4.043298
v 1.464507 -0.191828 4.080195
vt 0.375000 0.312500
vt 0.437500 0.312500
vt 0.500000 0.312500
vt 0.562500 0.312500
vt 0.625000 0.312500
vt 0.375000 0.387500
vt 0.437500 0.387500
vt 0.500000 0.387500
vt 0.562500 0.387500
vt 0.625000 0.387500
vt 0.375000 0.462500
vt 0.437500 0.462500
vt 0.500000 0.462500
vt 0.562500 0.462500
vt 0.625000 0.462500
vt 0.375000 0.537500
vt 0.437500 0.537500
vt 0.500000 0.537500
vt 0.562500 0.537500
vt 0.625000 0.537500
vt 0.375000 0.612500
vt 0.437500 0.612500
vt 0.500000 0.612500
vt 0.562500 0.612500
vt 0.625000 0.612500
vt 0.375000 0.687500
vt 0.437500 0.687500
vt 0.500000 0.687500
vt 0.562500 0.687500
vt 0.625000 0.687500
vt 0.500000 0.687500
vt 0.343750 0.843750
vt 0.500000 1.000000
vt 0.656250 0.843750
vt 0.500000 0.843750
vn -0.481043 -0.152405 0.863348
vn 0.952697 -0.117022 0.280490
vn 0.910900 -0.055173 0.408923
vn -0.430418 -0.122126 0.894330
vn 0.368148 0.192238 -0.909677
vn 0.491838 0.161003 -0.855672
vn -0.881253 0.173138 -0.439792
vn -0.924616 0.108338 -0.365169
vn 0.881408 0.126395 0.455131
vn -0.493904 -0.003171 0.869511
vn 0.537848 0.100987 -0.836971
vn -0.914943 -0.021194 -0.403027
vn 0.862258 0.199926 0.465338
vn -0.532157 0.095162 0.841281
vn 0.517656 -0.031217 -0.855019
vn -0.899686 -0.090875 -0.426974
vn 0.907672 0.119099 0.402427
vn -0.514144 0.105037 0.851248
vn 0.458821 -0.036019 -0.887798
vn -0.862250 -0.031918 -0.505477
vn 0.939760 0.086575 0.330689
vn -0.419633 -0.054162 0.906077
vn 0.380882 0.225271 -0.896762
vn -0.870936 0.141705 -0.470520
vn 0.105421 0.960089 0.259066
s 1
g SingleGrass
usemtl initialShadingGroup
f 1/1/1 2/2/2 6/7/3 5/6/4
f 2/2/2 3/3/5 7/8/6 6/7/3
f 3/3/5 4/4/7 8/9/8 7/8/6
f 4/4/7 1/5/1 5/10/4 8/9/8
f 5/6/4 6/7/3 10/12/9 9/11/10
f 6/7/3 7/8/6 11/13/11 10/12/9
f 7/8/6 8/9/8 12/14/12 11/13/11
f 8/9/8 5/10/4 9/15/10 12/14/12
f 9/11/10 10/12/9 14/17/13 13/16/14
f 10/12/9 11/13/11 15/18/15 14/17/13
f 11/13/11 12/14/12 16/19/16 15/18/15
f 12/14/12 9/15/10 13/20/14 16/19/16
f 13/16/14 14/17/13 18/22/17 17/21/18
f 14/17/13 15/18/15 19/23/19 18/22/17
f 15/18/15 16/19/16 20/24/20 19/23/19
f 16/19/16 13/20/14 17/25/18 20/24/20
f 17/21/18 18/22/17 22/27/21 21/26/22
f 18/22/17 19/23/19 23/28/23 22/27/21
f 19/23/19 20/24/20 24/29/24 23/28/23
f 20/24/20 17/25/18 21/30/22 24/29/24
f 21/33/22 22/32/21 25/35/25
f 22/32/21 23/31/23 25/35/25
f 23/31/23 24/34/24 25/35/25
f 24/34/24 21/33/22 25/35/25
