# This file uses centimeters as units for non-parametric coordinates.

mtllib LEaf.mtl
g default
v 1.758510 1.338032 5.322950
v 1.720100 1.527333 5.234844
v 1.709606 1.815989 5.434997
v 1.756315 1.499518 5.360806
v 1.720100 1.468453 5.486007
vt 0.000215 0.500025
vt 0.333430 0.000061
vt 0.999785 0.500025
vt 0.333422 0.500000
vt 0.333430 0.999936
vn 0.999913 0.012883 0.003021
vn 0.957283 0.162131 -0.239424
vn 0.995107 0.096200 0.022551
vn 0.989833 0.138483 0.032464
vn 0.957283 0.038831 0.286534
s 1
g Leaf_02
usemtl initialShadingGroup
f 1/1/1 2/2/2 4/4/3
f 2/2/2 3/3/4 4/4/3
f 1/1/1 4/4/3 5/5/5
f 4/4/3 3/3/4 5/5/5
