# author: headus 3D tools
#  using: ply2obj v1.8
#   from: uvlayout v2.09.04
mtllib CapeRatLP.mtl
# 271 vertices
v 1.401000 3.117000 -4.330000
v 1.274946 3.634839 -3.911776
v 1.465628 3.495982 -2.794435
v 0.670278 2.096394 -5.858897
v 0.449690 3.883001 -5.627754
v 0.733749 3.617899 -5.659360
v 0.928903 3.264915 -5.674955
v 0.894708 2.452877 -5.782641
v 1.936436 3.781813 -0.021115
v 1.309685 4.057067 0.467125
v 1.248063 3.490012 1.991727
v -0.001385 3.506059 2.371478
v -0.001518 4.335658 0.733802
v -0.001387 4.052032 -5.643563
v 1.007100 2.802690 -5.731141
v 2.069006 3.606879 1.035922
v 1.354334 3.660915 1.259456
v 1.081543 3.908309 -2.862218
v 0.571880 4.097875 -2.883984
v -0.001254 4.230190 -2.877930
v 0.897923 3.982904 -3.810198
v 0.469207 4.138883 -3.770438
v -0.001364 4.259825 -3.755486
v 1.714671 3.467427 -2.068581
v 1.271968 3.814826 -2.100936
v 0.684823 4.138941 -2.098867
v -0.001308 4.334751 -2.090500
v 0.459175 1.795378 -5.145578
v 0.955440 2.002829 -4.994918
v 1.134939 2.395444 -4.935165
v 1.298221 2.823378 -4.759121
v 1.082781 3.403495 -4.740854
v 0.823989 3.842269 -4.625537
v 0.441239 4.025977 -4.607125
v -0.001400 4.155395 -4.607358
v 1.971681 3.387777 -1.490308
v 1.444262 3.872061 -1.422330
v 0.779762 4.313828 -1.307759
v -0.001559 4.442969 -1.100275
v -0.001387 4.165287 -6.169470
v 0.744734 3.826001 -5.973411
v 0.947245 3.370353 -5.885716
v 1.117713 2.698225 -6.037148
v -0.001387 4.270889 -6.957492
v 0.719539 4.019931 -6.840042
v 1.015745 3.776043 -6.791742
v -0.001386 4.238658 -7.296000
v 0.458014 4.052100 -7.184584
v 1.135795 3.060224 -6.429567
v 1.095035 3.586412 -6.660157
v 0.759698 3.920897 -6.495569
v -0.001387 4.271726 -6.568832
v 0.498616 4.076267 -6.176319
v 0.403920 4.175192 -6.484441
v 0.448596 4.193024 -6.954167
v 0.285693 4.124610 -7.246349
v 1.169001 2.824303 -6.255331
v 0.858171 3.919613 -7.012930
v 0.630736 4.042729 -7.078451
v -0.001390 1.816725 -5.387190
v 0.472974 1.896405 -5.277631
v 0.755739 2.053131 -5.206100
v 0.975222 2.404060 -5.201808
v 1.080682 2.863716 -5.240128
v 1.003875 3.322783 -5.224092
v 0.782698 3.673172 -5.207884
v 0.436471 3.905115 -5.204971
v -0.001392 4.064356 -5.205490
v 2.298291 3.375018 -0.925953
v 2.744533 3.403159 -0.119745
v 2.519580 3.482436 0.594208
v 1.782892 3.855139 -0.733631
v 1.022583 4.291953 -0.372666
v -0.001564 4.506159 -0.206893
v -0.001510 3.932279 1.639927
v -1.403795 3.117092 -4.330087
v -1.277671 3.635156 -3.912024
v -1.469352 3.496577 -2.795124
v -0.673050 2.096394 -5.858897
v -0.452461 3.883001 -5.627749
v -0.736521 3.617899 -5.659360
v -0.931675 3.264912 -5.674955
v -0.897480 2.452877 -5.782641
v -1.939229 3.781539 -0.021447
v -1.312810 4.057428 0.465542
v -1.250815 3.489924 1.991856
v -1.009874 2.802687 -5.731143
v -2.071667 3.606668 1.036107
v -1.357174 3.660925 1.259254
v -1.084019 3.909431 -2.863896
v -0.574169 4.098558 -2.885589
v -0.900367 3.983350 -3.811222
v -0.471766 4.139127 -3.771291
v -1.719890 3.466849 -2.068956
v -1.275576 3.815725 -2.101953
v -0.687476 4.139598 -2.100152
v -0.461913 1.795401 -5.145555
v -0.958160 2.002922 -4.994925
v -1.137755 2.395507 -4.935208
v -1.300924 2.823405 -4.759089
v -1.085486 3.403539 -4.740893
v -0.826695 3.842334 -4.625754
v -0.444005 4.026001 -4.607249
v -1.975683 3.386405 -1.489431
v -1.448104 3.872509 -1.422565
v -0.783070 4.314542 -1.308956
v -0.747505 3.826001 -5.973408
v -0.950017 3.370353 -5.885716
v -1.120487 2.698226 -6.037151
v -0.722311 4.019931 -6.840044
v -1.018515 3.776043 -6.791742
v -0.460787 4.052100 -7.184584
v -1.138567 3.060224 -6.429567
v -1.097805 3.586419 -6.660137
v -0.762471 3.920895 -6.495569
v -0.501388 4.076267 -6.176317
v -0.406692 4.175195 -6.484445
v -0.451368 4.193024 -6.954167
v -0.288464 4.124610 -7.246347
v -1.171771 2.824303 -6.255327
v -0.860942 3.919613 -7.012930
v -0.633507 4.042729 -7.078451
v -0.475716 1.896425 -5.277608
v -0.758483 2.053157 -5.206084
v -0.977984 2.404081 -5.201800
v -1.083422 2.863710 -5.240087
v -1.006636 3.322767 -5.224068
v -0.785470 3.673157 -5.207891
v -0.439252 3.905097 -5.204954
v -2.299974 3.373970 -0.924365
v -2.745739 3.402674 -0.118542
v -2.521763 3.481783 0.595658
v -1.785867 3.855437 -0.734151
v -1.025524 4.292356 -0.373542
v 0.768719 3.939500 -6.115334
v 0.652360 4.057371 -6.215580
v 0.786301 3.948922 -6.379468
v 0.988802 3.507617 -6.282922
v 1.209082 3.139993 -6.360548
v 1.228414 3.000216 -6.197358
v 1.113850 3.105862 -6.051830
v 0.975971 3.497069 -5.903268
v -0.655130 4.057371 -6.215579
v -0.789071 3.948923 -6.379464
v -0.991567 3.507594 -6.282929
v -1.211853 3.139991 -6.360550
v -1.231183 3.000210 -6.197341
v -1.116622 3.105862 -6.051842
v -0.978745 3.497069 -5.903277
v -0.771493 3.939500 -6.115329
v -0.001386 1.960438 -5.527351
v 0.370260 1.954916 -5.446583
v 0.662994 2.110197 -5.461856
v 0.888099 2.456546 -5.448487
v 0.967066 2.853423 -5.444872
v 0.927988 3.253966 -5.457450
v 0.742846 3.598317 -5.464033
v 0.439819 3.862668 -5.496114
v -0.001387 4.034963 -5.496511
v -0.442593 3.862660 -5.496094
v -0.745619 3.598309 -5.464026
v -0.930757 3.253959 -5.457442
v -0.969829 2.853422 -5.444862
v -0.890864 2.456551 -5.448480
v -0.665754 2.110207 -5.461848
v -0.373023 1.954921 -5.446578
v 0.874760 2.297873 -5.907891
v 0.987902 2.469113 -5.919757
v 1.075608 2.587713 -5.950747
v 0.945880 3.294256 -5.771877
v 0.752157 3.688253 -5.782126
v 0.458387 3.924114 -5.773948
v -0.001387 4.087082 -5.841664
v -0.461159 3.924114 -5.773948
v -0.754930 3.688253 -5.782127
v -0.948651 3.294256 -5.771881
v -1.078390 2.587713 -5.950747
v -0.990672 2.469113 -5.919755
v -0.877532 2.297873 -5.907891
v -0.001387 1.941081 -5.628890
v 0.337248 1.972723 -5.625206
v 0.569028 2.005972 -5.753329
v 0.847431 2.452239 -5.641273
v 0.967605 2.834971 -5.600438
v 0.914629 3.250090 -5.582174
v 0.730447 3.590206 -5.576494
v 0.444968 3.867647 -5.570446
v -0.001387 4.041295 -5.575205
v -0.447739 3.867647 -5.570444
v -0.733220 3.590206 -5.576492
v -0.917401 3.250087 -5.582174
v -0.970375 2.834970 -5.600434
v -0.850202 2.452240 -5.641273
v -0.571798 2.005972 -5.753329
v -0.340023 1.972723 -5.625209
v 2.404008 2.955587 2.988692
v 2.579493 3.161711 1.972052
v 2.986583 3.194687 1.646126
v 3.019709 3.214272 0.760295
v -2.406806 2.955367 2.988448
v -1.543619 3.046577 3.237016
v 0.294946 3.044621 3.947755
v -2.762505 2.989734 2.243726
v -3.020219 3.212397 0.760295
v -2.743643 3.237984 1.477595
v 1.088184 3.046617 3.553573
v -2.882980 3.286165 0.320877
v -2.754901 3.371219 1.121411
v -2.417087 3.298200 1.639916
v -1.881991 3.282156 2.123850
v -1.424473 3.268250 2.754897
v -0.001362 3.275338 3.159617
v 1.421689 3.268313 2.754785
v 1.879171 3.282286 2.124073
v 2.414691 3.298807 1.639629
v 2.753082 3.372508 1.120167
v 2.882121 3.287345 0.320275
v -0.144924 4.206029 -7.263234
v -0.226377 4.256351 -6.955828
v -0.204039 4.247856 -6.526640
v -0.251387 4.145173 -6.172893
v -0.231273 4.029993 -5.807806
v -0.226924 3.991912 -5.635655
v -0.224562 3.978865 -5.572825
v -0.221991 3.973207 -5.496302
v -0.220322 4.009121 -5.205222
v -0.222702 4.115092 -4.607302
v -0.236565 4.223871 -3.763387
v -0.287711 4.188768 -2.881760
v -0.344393 4.261571 -2.095328
v -0.392315 4.403151 -1.204615
v -0.513544 4.425181 -0.290217
v -0.651332 4.236109 0.651786
v -0.679343 3.822152 1.459656
v -0.626100 3.522387 2.181667
v -0.712917 3.296190 2.957257
v -0.799736 3.069994 3.732847
v 0.142154 4.206029 -7.263234
v 0.223605 4.256351 -6.955828
v 0.201267 4.247854 -6.526636
v 0.248616 4.145173 -6.172893
v 0.228500 4.029993 -5.807806
v 0.224151 3.991912 -5.635658
v 0.221790 3.978865 -5.572825
v 0.219217 3.973209 -5.496312
v 0.217539 4.009132 -5.205228
v 0.219920 4.115080 -4.607241
v 0.233921 4.223750 -3.762963
v 0.285313 4.188428 -2.880957
v 0.341758 4.261242 -2.094683
v 0.389100 4.402793 -1.204016
v 0.510511 4.424979 -0.289781
v 0.648301 4.235913 0.652576
v 0.676412 3.822173 1.459759
v 0.623339 3.522431 2.181603
v 0.710163 3.296222 2.957201
v 0.796987 3.166427 3.282323
v 2.977512 3.241058 1.017490
v 2.817601 3.351497 0.720220
v 2.632057 3.419577 0.237232
v 1.974189 3.683358 0.507404
v 1.326227 3.853954 0.863291
v 0.662356 4.032713 1.041094
v -0.001513 4.133967 1.163309
v -0.665337 4.032838 1.040646
v -1.329161 3.854183 0.862396
v -1.976842 3.683019 0.507331
v -2.633752 3.419008 0.238556
v -2.818941 3.350264 0.721144
v -3.004130 3.213062 1.356854
v -0.001387 1.715699 -5.255136
# 271 normals
vn 0.402979 0.896509 0.183849
vn 0.481353 0.876457 0.007630
vn 0.517152 0.843832 -0.142617
vn 0.389764 0.920802 0.004395
vn 0.209058 0.975096 0.072728
vn 0.249832 0.931881 0.262681
vn 0.250595 0.916590 0.311268
vn 0.253159 0.937130 0.240035
vn 0.385735 0.906702 0.170024
vn 0.341513 0.881249 0.326466
vn 0.557224 0.828267 -0.057102
vn 0.691571 0.715040 -0.100989
vn 0.735702 0.652475 -0.181408
vn 0.552371 0.826772 -0.105689
vn 0.359672 0.932430 -0.031588
vn 0.349173 0.934963 -0.062107
vn 0.245559 0.968260 -0.046481
vn 0.244217 0.968565 -0.046725
vn 0.837545 0.405878 -0.365623
vn 0.903101 0.220198 -0.368370
vn 0.827199 0.478881 -0.293780
vn 0.601569 0.765611 -0.227797
vn 0.396997 0.901148 -0.173717
vn 0.278826 0.949368 -0.144143
vn 0.560947 0.811451 -0.163248
vn 0.650827 0.737533 -0.179790
vn 0.398431 0.904871 -0.149393
vn 0.214399 0.966368 -0.141763
vn 0.684948 -0.422755 -0.593359
vn 0.372825 -0.731185 -0.571110
vn 0.383690 -0.756150 -0.529940
vn 0.647531 -0.563633 -0.512788
vn 0.836111 -0.236800 -0.494659
vn 0.827809 -0.299609 -0.474242
vn 0.922389 0.050510 -0.382744
vn 0.880486 0.372124 -0.293567
vn 0.688793 0.684337 -0.238906
vn 0.477110 0.856284 -0.197400
vn 0.322804 0.934475 -0.149759
vn 0.538516 0.816456 -0.207959
vn 0.615730 0.740920 -0.267717
vn 0.390313 0.907312 -0.156168
vn 0.181011 0.978484 -0.098791
vn 0.256913 0.924678 0.280626
vn 0.320942 0.922938 0.212385
vn 0.557407 0.777788 0.290026
vn 0.465452 0.812733 0.350241
vn 0.763261 0.570256 0.303668
vn 0.940640 0.251297 0.227950
vn 0.928981 0.238632 0.282824
vn 0.721296 0.599402 0.346792
vn 0.962278 -0.031099 0.270219
vn 0.911372 -0.074254 0.404688
vn 0.798938 -0.448056 0.400995
vn 0.746109 -0.395166 0.535738
vn 0.231429 0.948178 -0.217329
vn 0.232345 0.969511 -0.076787
vn 0.445431 0.893487 -0.055027
vn 0.375755 0.853385 -0.361289
vn 0.691876 -0.505493 0.515382
vn 0.779894 -0.552616 0.293658
vn 0.671519 0.724470 0.155283
vn 0.830342 0.528566 0.176067
vn 0.668467 0.711958 0.214765
vn 0.586339 0.802539 0.109534
vn 0.180767 0.973997 0.136269
vn 0.424464 0.896142 0.129372
vn 0.279589 0.681224 0.676463
vn 0.212965 0.964842 0.153849
vn 0.385949 0.876915 0.286211
vn 0.542117 0.669078 0.508271
vn 0.923610 0.064335 0.377831
vn 0.965971 -0.163554 0.200177
vn 0.977232 -0.181194 0.109534
vn 0.773607 -0.023714 0.633034
vn 0.835714 0.215772 0.504944
vn 0.508179 0.322957 0.798328
vn 0.894494 0.427150 0.131600
vn 0.984099 0.171275 -0.046969
vn 0.988189 0.119575 -0.095678
vn 0.528017 0.821797 -0.213850
vn 0.411555 0.784838 -0.463102
vn 0.694531 0.718763 0.031160
vn 0.204602 0.938564 0.277696
vn 0.575749 0.817524 -0.012635
vn 0.000000 -0.802753 -0.596136
vn 0.000000 -0.939510 -0.342214
vn 0.293231 -0.900812 -0.319966
vn 0.714430 -0.655527 -0.244613
vn 0.881218 -0.378258 -0.283098
vn 0.951657 -0.059543 -0.300983
vn 0.912501 0.288348 -0.289813
vn 0.744156 0.628578 -0.225874
vn 0.559849 0.817982 -0.131997
vn 0.356009 0.931667 -0.071934
vn 0.483672 0.872276 -0.071232
vn 0.549625 0.803485 -0.228163
vn 0.342306 0.936794 0.071995
vn 0.418238 0.905329 0.073277
vn -0.403284 0.896386 0.183880
vn -0.389855 0.920772 0.004639
vn -0.518281 0.843191 -0.142556
vn -0.482299 0.875877 0.007569
vn 0.000000 0.898035 0.439816
vn -0.238662 0.890069 0.388299
vn -0.147592 0.931362 0.332723
vn 0.000000 0.937160 0.348807
vn -0.208783 0.975157 0.072941
vn -0.249832 0.931850 0.262742
vn 0.000000 0.961149 0.275713
vn 0.000092 0.996063 0.088506
vn -0.250870 0.916529 0.311268
vn -0.341787 0.881157 0.326344
vn -0.386315 0.906458 0.169963
vn -0.253891 0.936947 0.240035
vn -0.000031 0.904413 0.426509
vn -0.276415 0.866294 0.415980
vn -0.556797 0.828542 -0.057590
vn -0.552127 0.826863 -0.106177
vn -0.735488 0.652628 -0.181621
vn -0.691326 0.715284 -0.101538
vn -0.359000 0.932766 -0.031801
vn -0.348654 0.935116 -0.062443
vn -0.245010 0.968382 -0.046603
vn -0.243270 0.968779 -0.046725
vn 0.000458 0.998810 -0.047091
vn 0.000244 0.999237 -0.038424
vn -0.827199 0.478820 -0.293933
vn -0.903070 0.220198 -0.368431
vn -0.837484 0.405817 -0.365928
vn -0.601569 0.765519 -0.228011
vn -0.396783 0.901178 -0.173900
vn -0.278551 0.949429 -0.144296
vn 0.000061 0.990020 -0.140695
vn -0.561039 0.811390 -0.163157
vn -0.651499 0.737075 -0.179271
vn -0.397668 0.905176 -0.149393
vn -0.213270 0.966612 -0.141915
vn 0.000519 0.991729 -0.128243
vn -0.684887 -0.422847 -0.593359
vn -0.647500 -0.563725 -0.512727
vn -0.383721 -0.756180 -0.529848
vn -0.372887 -0.731215 -0.571049
vn -0.836141 -0.236709 -0.494690
vn -0.827809 -0.299609 -0.474242
vn -0.922420 0.050510 -0.382714
vn -0.880516 0.372063 -0.293567
vn -0.688824 0.684276 -0.239028
vn -0.477080 0.856284 -0.197522
vn -0.322804 0.934444 -0.149789
vn 0.000000 0.989135 -0.146402
vn -0.539279 0.816120 -0.207471
vn -0.617652 0.739608 -0.267015
vn -0.390069 0.907435 -0.155924
vn -0.180156 0.978606 -0.098608
vn 0.000336 0.996307 -0.085119
vn 0.000000 0.981078 0.193188
vn 0.000000 0.967894 0.251236
vn -0.256913 0.924678 0.280626
vn -0.320942 0.922938 0.212385
vn -0.763261 0.570225 0.303638
vn -0.721296 0.599402 0.346792
vn -0.928981 0.238632 0.282824
vn -0.940640 0.251297 0.227980
vn -0.911372 -0.074254 0.404688
vn -0.962278 -0.031099 0.270219
vn -0.746109 -0.395166 0.535738
vn -0.798938 -0.448056 0.401025
vn 0.000000 0.998596 -0.051486
vn 0.000000 0.989532 -0.144082
vn -0.231429 0.948178 -0.217329
vn -0.232345 0.969511 -0.076787
vn -0.691876 -0.505493 0.515382
vn -0.779894 -0.552616 0.293658
vn -0.671519 0.724470 0.155313
vn -0.586339 0.802539 0.109534
vn -0.668467 0.711988 0.214765
vn -0.830312 0.528597 0.176097
vn 0.000000 0.992553 0.121071
vn -0.180767 0.973997 0.136269
vn -0.465452 0.812733 0.350241
vn -0.557407 0.777788 0.290026
vn -0.445431 0.893487 -0.055027
vn -0.424464 0.896112 0.129372
vn -0.375755 0.853385 -0.361289
vn -0.411555 0.784838 -0.463133
vn -0.528017 0.821797 -0.213850
vn -0.385949 0.876915 0.286211
vn 0.000000 0.963377 0.267839
vn -0.204602 0.938564 0.277696
vn -0.575749 0.817524 -0.012635
vn -0.293261 -0.900812 -0.319905
vn -0.714430 -0.655558 -0.244522
vn -0.881249 -0.378288 -0.283037
vn -0.951688 -0.059543 -0.300891
vn -0.912531 0.288317 -0.289752
vn -0.744156 0.628578 -0.225844
vn -0.559849 0.817982 -0.131966
vn 0.000000 0.997497 -0.070286
vn -0.356040 0.931667 -0.071904
vn -0.551639 0.802112 -0.228469
vn -0.485168 0.871422 -0.071263
vn -0.419490 0.904718 0.073277
vn -0.343588 0.936275 0.071995
vn 0.238601 0.890069 0.388329
vn 0.147561 0.931362 0.332723
vn 0.214826 0.938992 0.268480
vn 0.276323 0.866294 0.416010
vn -0.694531 0.718763 0.031160
vn -0.212965 0.964842 0.153849
vn -0.894494 0.427150 0.131630
vn -0.984099 0.171245 -0.046939
vn -0.988189 0.119575 -0.095678
vn -0.977232 -0.181194 0.109534
vn -0.965971 -0.163554 0.200177
vn -0.923610 0.064335 0.377831
vn -0.773637 -0.023714 0.633034
vn -0.508210 0.322957 0.798328
vn -0.835744 0.215772 0.504914
vn -0.542117 0.669078 0.508271
vn -0.279589 0.681224 0.676463
vn 0.000000 -0.999969 0.001160
vn 0.234817 -0.970823 0.047091
vn 0.684063 -0.727645 0.049655
vn 0.890985 -0.451535 0.045504
vn 0.992614 -0.091284 0.078832
vn 0.960691 0.272447 0.052585
vn 0.808368 0.586370 0.050876
vn 0.608985 0.785082 0.112952
vn 0.353171 0.925014 0.139749
vn 0.000000 0.991485 0.130196
vn -0.353171 0.925014 0.139779
vn -0.608985 0.785082 0.112983
vn -0.808368 0.586370 0.050876
vn -0.960691 0.272447 0.052585
vn -0.992614 -0.091284 0.078832
vn -0.890985 -0.451535 0.045504
vn -0.684063 -0.727645 0.049777
vn -0.234847 -0.970823 0.047183
vn 0.228133 0.936031 0.267564
vn 0.214430 0.938534 0.270402
vn 0.333822 0.927883 0.165537
vn 0.471678 0.881646 -0.001312
vn -0.214918 0.938961 0.268480
vn -0.246567 0.933132 0.261582
vn -0.195202 0.942684 0.270494
vn -0.095923 0.954434 0.282457
vn -0.001801 0.959470 0.281511
vn -0.256821 0.927242 0.272386
vn -0.477934 0.878288 0.007843
vn -0.332052 0.924403 0.187054
vn 0.090093 0.955716 0.279863
vn 0.200299 0.940609 0.274004
vn -0.437862 0.888024 0.140023
vn -0.332784 0.900140 0.280992
vn -0.279283 0.928920 0.243026
vn -0.252670 0.933132 0.255631
vn -0.206311 0.935573 0.286486
vn -0.087164 0.952359 0.292071
vn 0.006104 0.958860 0.283739
vn 0.100378 0.949338 0.297473
vn 0.192334 0.936092 0.294146
vn 0.226576 0.935116 0.272294
vn 0.205548 0.946621 0.248123
vn 0.210828 0.945797 0.246689
vn 0.528383 0.848074 0.037936
vn 0.477843 0.878350 0.009095
vn 0.564549 0.824971 -0.022432
vn -0.486053 0.873772 0.010163
vn -0.566136 0.824239 -0.007966
vn 0.000000 -0.801074 -0.598364
# 275 uv coords
vt 0.253868 0.153399
vt 0.219452 0.151573
vt 0.184077 0.149841
vt 0.115097 0.129978
vt 0.127675 0.644721
vt 0.187177 0.682461
vt 0.189559 0.820803
vt 0.298101 0.851651
vt 0.298113 0.700373
vt 0.297939 0.151956
vt 0.145203 0.138525
vt 0.118383 0.737930
vt 0.179148 0.756802
vt 0.200149 0.395763
vt 0.246542 0.394625
vt 0.298042 0.395130
vt 0.221157 0.315716
vt 0.258494 0.318943
vt 0.298022 0.320059
vt 0.178252 0.460268
vt 0.235828 0.461526
vt 0.298069 0.462604
vt 0.181328 0.231252
vt 0.222788 0.244892
vt 0.258576 0.246159
vt 0.297988 0.246353
vt 0.165269 0.520173
vt 0.232227 0.530438
vt 0.298108 0.546526
vt 0.297917 0.103676
vt 0.230567 0.121431
vt 0.190614 0.133258
vt 0.297888 0.034670
vt 0.236744 0.044501
vt 0.228926 0.074637
vt 0.297902 0.067913
vt 0.256835 0.101620
vt 0.265500 0.074959
vt 0.262476 0.035186
vt 0.045124 0.150401
vt 0.068027 0.167194
vt 0.102447 0.176609
vt 0.142989 0.182151
vt 0.182617 0.188991
vt 0.218552 0.192890
vt 0.255158 0.193343
vt 0.297961 0.193784
vt 0.076528 0.703258
vt 0.139439 0.582112
vt 0.213348 0.609671
vt 0.298118 0.621206
vt 0.298108 0.780971
vt 0.342010 0.153363
vt 0.376422 0.151508
vt 0.411794 0.149744
vt 0.480751 0.129809
vt 0.468600 0.644620
vt 0.409074 0.682247
vt 0.406694 0.820613
vt 0.450655 0.138387
vt 0.477807 0.737807
vt 0.417073 0.756638
vt 0.395905 0.395570
vt 0.349509 0.394464
vt 0.374849 0.315585
vt 0.337531 0.318851
vt 0.417943 0.460124
vt 0.360301 0.461387
vt 0.414627 0.231149
vt 0.373179 0.244819
vt 0.337397 0.246123
vt 0.431008 0.520096
vt 0.363997 0.530305
vt 0.365279 0.121374
vt 0.405240 0.133168
vt 0.359037 0.044447
vt 0.366882 0.074576
vt 0.338997 0.101585
vt 0.330308 0.074930
vt 0.333298 0.035154
vt 0.550745 0.150161
vt 0.527858 0.166975
vt 0.493448 0.176426
vt 0.452916 0.182012
vt 0.413297 0.188893
vt 0.377367 0.192826
vt 0.340762 0.193312
vt 0.519676 0.703314
vt 0.456811 0.582004
vt 0.382882 0.609544
vt 0.047080 0.133624
vt 0.074401 0.144461
vt 0.109471 0.156102
vt 0.145368 0.162929
vt 0.181645 0.167522
vt 0.217083 0.169422
vt 0.253359 0.167247
vt 0.297947 0.167510
vt 0.342534 0.167212
vt 0.378811 0.169357
vt 0.414246 0.167422
vt 0.450516 0.162791
vt 0.486404 0.155926
vt 0.521462 0.144250
vt 0.548771 0.133386
vt 0.185659 0.142225
vt 0.222805 0.139766
vt 0.255056 0.139405
vt 0.297931 0.133461
vt 0.340808 0.139369
vt 0.373058 0.139703
vt 0.410204 0.142130
vt 0.111626 0.140652
vt 0.146052 0.150055
vt 0.182795 0.157203
vt 0.217603 0.159236
vt 0.253345 0.159669
vt 0.297943 0.159307
vt 0.342539 0.159633
vt 0.378280 0.159170
vt 0.413084 0.157104
vt 0.449818 0.149918
vt 0.484233 0.140479
vt 0.537962 0.749313
vt 0.509199 0.794105
vt 0.462720 0.835168
vt 0.421240 0.887652
vt 0.298154 0.920998
vt 0.175051 0.887834
vt 0.133559 0.835321
vt 0.086898 0.794278
vt 0.058195 0.749277
vt 0.315351 0.034879
vt 0.313410 0.071389
vt 0.318234 0.102966
vt 0.318731 0.136513
vt 0.319303 0.152752
vt 0.319493 0.159521
vt 0.319500 0.167369
vt 0.318673 0.193540
vt 0.317150 0.246232
vt 0.317308 0.319406
vt 0.323400 0.394759
vt 0.328561 0.461877
vt 0.330676 0.538035
vt 0.339843 0.614974
vt 0.351937 0.695289
vt 0.357161 0.770038
vt 0.352582 0.835735
vt 0.359689 0.903922
vt 0.280424 0.034894
vt 0.282396 0.071402
vt 0.277599 0.102984
vt 0.277133 0.136531
vt 0.276575 0.152770
vt 0.276392 0.159538
vt 0.276394 0.167386
vt 0.277249 0.193555
vt 0.278824 0.246249
vt 0.278727 0.319452
vt 0.272669 0.394840
vt 0.267573 0.461948
vt 0.265543 0.538103
vt 0.256385 0.615040
vt 0.244292 0.695404
vt 0.239052 0.770160
vt 0.243625 0.835938
vt 0.236542 0.904427
vt 0.049954 0.715403
vt 0.063498 0.673150
vt 0.124885 0.691805
vt 0.182584 0.719674
vt 0.241289 0.731327
vt 0.298111 0.738754
vt 0.354932 0.731215
vt 0.413643 0.719486
vt 0.471355 0.691701
vt 0.532716 0.673257
vt 0.546107 0.715614
vt 0.495587 0.201997
vt 0.465091 0.223859
vt 0.453375 0.264570
vt 0.416108 0.305621
vt 0.444018 0.398180
vt 0.528315 0.191818
vt 0.466141 0.460720
vt 0.361354 0.106909
vt 0.397428 0.128000
vt 0.461877 0.112827
vt 0.466617 0.116903
vt 0.474366 0.118453
vt 0.512729 0.112757
vt 0.523686 0.117441
vt 0.543542 0.119458
vt 0.570428 0.108999
vt 0.581101 0.121326
vt 0.561070 0.159698
vt 0.491353 0.511697
vt 0.351453 0.097826
vt 0.428932 0.110278
vt 0.489280 0.114260
vt 0.565676 0.102172
vt 0.590070 0.131930
vt 0.515601 0.565714
vt 0.367022 0.084558
vt 0.440593 0.094702
vt 0.456438 0.096637
vt 0.543999 0.642286
vt 0.408875 0.089229
vt 0.441592 0.077555
vt 0.449038 0.073832
vt 0.309565 0.008238
vt 0.323016 0.008470
vt 0.390817 0.046931
vt 0.404923 0.057088
vt 0.556200 0.682121
vt 0.297874 0.005780
vt 0.152150 0.398338
vt 0.179918 0.305730
vt 0.142620 0.264716
vt 0.130856 0.224014
vt 0.100330 0.202184
vt 0.338796 0.013265
vt 0.351939 0.023947
vt 0.373162 0.029031
vt 0.566266 0.720625
vt 0.560799 0.771061
vt 0.234481 0.106962
vt 0.244375 0.097872
vt 0.286185 0.008247
vt 0.130244 0.460851
vt 0.067590 0.192039
vt 0.538560 0.781299
vt 0.540779 0.850238
vt 0.129219 0.117057
vt 0.133956 0.112976
vt 0.198422 0.128083
vt 0.228793 0.084619
vt 0.121470 0.118616
vt 0.272733 0.008492
vt 0.072149 0.117656
vt 0.083101 0.112960
vt 0.052295 0.119691
vt 0.105041 0.511729
vt 0.034809 0.159948
vt 0.014740 0.121593
vt 0.025401 0.109256
vt 0.507749 0.912838
vt 0.166899 0.110394
vt 0.186946 0.089328
vt 0.106551 0.114438
vt 0.190868 0.057182
vt 0.204966 0.047014
vt 0.243824 0.023995
vt 0.256958 0.013301
vt 0.030146 0.102424
vt 0.080643 0.565673
vt 0.005780 0.132205
vt 0.432637 0.931963
vt 0.139381 0.096777
vt 0.155225 0.094829
vt 0.154217 0.077686
vt 0.146768 0.073966
vt 0.222605 0.029098
vt 0.052199 0.642179
vt 0.367247 0.972182
vt 0.273682 0.990677
vt 0.228869 0.934084
vt 0.039999 0.681924
vt 0.202225 0.958242
vt 0.088429 0.912911
vt 0.072228 0.824504
vt 0.035580 0.741967
vt 0.029668 0.720366
vt 0.037423 0.795832
# 230 polygons
usemtl Maya_Lambert2SG
s 1
g RatCape
f 10/6/1 9/5/2 72/49/3 73/50/4
f 73/50/4 252/164/5 253/165/6 10/6/1
f 17/13/7 16/12/8 261/171/9 262/172/10
f 18/14/11 3/218/12 2/219/13 21/17/14
f 19/15/15 18/14/11 21/17/14 22/18/16
f 22/18/16 248/160/17 249/161/18 19/15/15
f 2/219/13 1/220/19 31/221/20 32/23/21
f 21/17/14 2/219/13 32/23/21 33/24/22
f 22/18/16 21/17/14 33/24/22 34/25/23
f 34/25/23 247/159/24 248/160/17 22/18/16
f 25/20/25 24/231/26 3/218/12 18/14/11
f 26/21/27 25/20/25 18/14/11 19/15/15
f 19/15/15 249/161/18 250/162/28 26/21/27
f 29/232/29 28/245/30 61/40/31 62/41/32
f 30/222/33 29/232/29 62/41/32 63/42/34
f 63/42/34 64/43/35 31/221/20 30/222/33
f 32/23/21 31/221/20 64/43/35 65/44/36
f 33/24/22 32/23/21 65/44/36 66/45/37
f 34/25/23 33/24/22 66/45/37 67/46/38
f 67/46/38 246/158/39 247/159/24 34/25/23
f 37/27/40 36/244/41 24/231/26 25/20/25
f 38/28/42 37/27/40 25/20/25 26/21/27
f 26/21/27 250/162/28 251/163/43 38/28/42
f 242/154/44 243/155/45 5/1/46 172/108/47
f 6/2/48 7/3/49 170/106/50 171/107/51
f 7/3/49 15/11/52 169/235/53 170/106/50
f 15/11/52 8/4/54 168/239/55 169/235/53
f 238/230/56 239/151/57 55/39/58 56/240/59
f 167/251/60 168/239/55 8/4/54 4/242/61
f 51/35/62 50/252/63 46/253/64 45/34/65
f 239/151/57 240/152/66 54/38/67 55/39/58
f 135/228/68 136/229/69 53/37/70 41/31/71
f 43/236/72 57/260/73 140/261/74 141/249/75
f 42/32/76 142/237/77 135/228/68 41/31/71
f 138/250/78 139/262/79 49/263/80 50/252/63
f 171/107/51 172/108/47 5/1/46 6/2/48
f 55/39/58 54/38/67 51/35/62 45/34/65
f 56/240/59 55/39/58 59/254/81 48/255/82
f 139/262/79 140/261/74 57/260/73 49/263/80
f 51/35/62 53/37/70 136/229/69 137/238/83
f 54/38/67 53/37/70 51/35/62
f 240/152/66 241/153/84 53/37/70 54/38/67
f 137/238/83 138/250/78 50/252/63 51/35/62
f 141/249/75 142/237/77 42/32/76 43/236/72
f 59/254/81 55/39/58 45/34/65
f 45/34/65 46/253/64 58/264/85 59/254/81
f 61/40/31 60/246/86 151/247/87 152/91/88
f 62/41/32 61/40/31 152/91/88 153/92/89
f 63/42/34 62/41/32 153/92/89 154/93/90
f 154/93/90 155/94/91 64/43/35 63/42/34
f 65/44/36 64/43/35 155/94/91 156/95/92
f 66/45/37 65/44/36 156/95/92 157/96/93
f 67/46/38 66/45/37 157/96/93 158/97/94
f 158/97/94 245/157/95 246/158/39 67/46/38
f 9/5/2 70/265/96 69/257/97 72/49/3
f 16/12/8 71/48/98 260/170/99 261/171/9
f 72/49/3 69/257/97 36/244/41 37/27/40
f 73/50/4 72/49/3 37/27/40 38/28/42
f 38/28/42 251/163/43 252/164/5 73/50/4
f 85/58/100 134/90/101 133/89/102 84/57/103
f 75/52/104 234/148/105 235/149/106 12/8/107
f 232/146/108 233/147/109 13/9/110 74/51/111
f 89/62/112 266/176/113 267/177/114 88/61/115
f 264/174/116 265/175/117 234/148/105 75/52/104
f 90/63/118 92/65/119 77/183/120 78/184/121
f 91/64/122 93/66/123 92/65/119 90/63/118
f 228/142/124 229/143/125 20/16/126 23/19/127
f 77/183/120 101/69/128 100/181/129 76/182/130
f 92/65/119 102/70/131 101/69/128 77/183/120
f 93/66/123 103/71/132 102/70/131 92/65/119
f 227/141/133 228/142/124 23/19/127 35/26/134
f 95/67/135 90/63/118 78/184/121 94/186/136
f 96/68/137 91/64/122 90/63/118 95/67/135
f 229/143/125 230/144/138 27/22/139 20/16/126
f 98/185/140 124/82/141 123/81/142 97/197/143
f 99/180/144 125/83/145 124/82/141 98/185/140
f 125/83/145 99/180/144 100/181/129 126/84/146
f 101/69/128 127/85/147 126/84/146 100/181/129
f 102/70/131 128/86/148 127/85/147 101/69/128
f 103/71/132 129/87/149 128/86/148 102/70/131
f 226/140/150 227/141/133 35/26/134 68/47/151
f 105/72/152 95/67/135 94/186/136 104/198/153
f 106/73/154 96/68/137 95/67/135 105/72/152
f 230/144/138 231/145/155 39/29/156 27/22/139
f 14/10/157 173/109/158 222/136/159 223/137/160
f 81/54/161 175/111/162 176/112/163 82/55/164
f 82/55/164 176/112/163 177/190/165 87/60/166
f 87/60/166 177/190/165 178/191/167 83/56/168
f 44/33/169 47/217/170 218/212/171 219/133/172
f 178/191/167 179/201/173 79/192/174 83/56/168
f 115/77/175 110/76/176 111/214/177 114/215/178
f 52/36/179 44/33/169 219/133/172 220/134/180
f 174/110/181 175/111/162 81/54/161 80/53/182
f 118/80/183 110/76/176 115/77/175 117/79/184
f 119/213/185 112/223/186 122/224/187 118/80/183
f 117/79/184 115/77/175 116/78/188
f 40/30/189 52/36/179 220/134/180 221/135/190
f 122/224/187 110/76/176 118/80/183
f 110/76/176 122/224/187 121/225/191 111/214/177
f 123/81/142 166/105/192 151/195/87 60/196/86
f 124/82/141 165/104/193 166/105/192 123/81/142
f 125/83/145 164/103/194 165/104/193 124/82/141
f 163/102/195 164/103/194 125/83/145 126/84/146
f 127/85/147 162/101/196 163/102/195 126/84/146
f 128/86/148 161/100/197 162/101/196 127/85/147
f 129/87/149 160/99/198 161/100/197 128/86/148
f 159/98/199 225/139/200 226/140/150 68/47/151
f 84/57/103 133/89/102 130/204/201 131/208/202
f 88/61/115 267/177/114 268/178/203 132/88/204
f 133/89/102 105/72/152 104/198/153 130/204/201
f 134/90/101 106/73/154 105/72/152 133/89/102
f 231/145/155 232/146/108 74/51/111 39/29/156
f 254/166/205 255/167/206 11/7/207 17/13/7
f 262/172/10 263/173/208 254/166/205 17/13/7
f 115/77/175 144/205/209 143/199/210 116/78/188
f 145/209/211 144/205/209 115/77/175 114/215/178
f 146/210/212 145/209/211 114/215/178 113/211/213
f 147/206/214 146/210/212 113/211/213 120/207/215
f 109/189/216 148/200/217 147/206/214 120/207/215
f 149/188/218 148/200/217 109/189/216 108/75/219
f 108/75/219 107/74/220 150/187/221 149/188/218
f 143/199/210 150/187/221 107/74/220 116/78/188
f 152/91/88 151/247/87 180/256/222 181/243/223
f 153/92/89 152/91/88 181/243/223 182/241/224
f 154/93/90 153/92/89 182/241/224 183/113/225
f 183/113/225 184/114/226 155/94/91 154/93/90
f 156/95/92 155/94/91 184/114/226 185/115/227
f 157/96/93 156/95/92 185/115/227 186/116/228
f 158/97/94 157/96/93 186/116/228 187/117/229
f 187/117/229 244/156/230 245/157/95 158/97/94
f 188/118/231 224/138/232 225/139/200 159/98/199
f 161/100/197 160/99/198 189/119/233 190/120/234
f 162/101/196 161/100/197 190/120/234 191/121/235
f 163/102/195 162/101/196 191/121/235 192/122/236
f 192/122/236 193/123/237 164/103/194 163/102/195
f 165/104/193 164/103/194 193/123/237 194/193/238
f 166/105/192 165/104/193 194/193/238 195/194/239
f 151/195/87 166/105/192 195/194/239 180/202/222
f 170/106/50 169/235/53 43/236/72 42/32/76
f 171/107/51 170/106/50 42/32/76 41/31/71
f 53/37/70 172/108/47 171/107/51 41/31/71
f 241/153/84 242/154/44 172/108/47 53/37/70
f 221/135/190 222/136/159 173/109/158 40/30/189
f 116/78/188 107/74/220 175/111/162 174/110/181
f 176/112/163 175/111/162 107/74/220 108/75/219
f 177/190/165 176/112/163 108/75/219 109/189/216
f 183/113/225 182/241/224 4/242/61 8/4/54
f 15/11/52 184/114/226 183/113/225 8/4/54
f 185/115/227 184/114/226 15/11/52 7/3/49
f 186/116/228 185/115/227 7/3/49 6/2/48
f 187/117/229 186/116/228 6/2/48 5/1/46
f 243/155/45 244/156/230 187/117/229 5/1/46
f 14/10/157 223/137/160 224/138/232 188/118/231
f 190/120/234 189/119/233 80/53/182 81/54/161
f 191/121/235 190/120/234 81/54/161 82/55/164
f 192/122/236 191/121/235 82/55/164 87/60/166
f 87/60/166 83/56/168 193/123/237 192/122/236
f 194/193/238 193/123/237 83/56/168 79/192/174
f 16/12/8 17/13/7 214/130/240 215/131/241
f 71/48/98 16/12/8 215/131/241 216/132/242
f 259/169/243 260/170/99 71/48/98 216/132/242
f 86/59/244 89/62/112 210/126/245 211/127/246
f 12/8/107 235/149/106 236/150/247 212/128/248
f 89/62/112 88/61/115 209/125/249 210/126/245
f 132/88/204 268/178/203 269/179/250 208/124/251
f 88/61/115 132/88/204 208/124/251 209/125/249
f 11/7/207 255/167/206 256/168/252 213/129/253
f 17/13/7 11/7/207 213/129/253 214/130/240
f 208/124/251 269/179/250 270/227/254 205/233/255
f 209/125/249 208/124/251 205/233/255 203/234/256
f 210/126/245 209/125/249 203/234/256 200/248/257
f 211/127/246 210/126/245 200/248/257 201/259/258
f 212/128/248 236/150/247 237/266/259 202/267/260
f 213/129/253 256/168/252 257/268/261 206/270/262
f 214/130/240 213/129/253 206/270/262 196/271/263
f 215/131/241 214/130/240 196/271/263 197/272/264
f 216/132/242 215/131/241 197/272/264 198/275/265
f 258/273/266 259/169/243 216/132/242 198/275/265
f 219/133/172 218/212/171 119/213/185 118/80/183
f 220/134/180 219/133/172 118/80/183 117/79/184
f 221/135/190 220/134/180 117/79/184 116/78/188
f 174/110/181 222/136/159 221/135/190 116/78/188
f 223/137/160 222/136/159 174/110/181 80/53/182
f 224/138/232 223/137/160 80/53/182 189/119/233
f 225/139/200 224/138/232 189/119/233 160/99/198
f 226/140/150 225/139/200 160/99/198 129/87/149
f 129/87/149 103/71/132 227/141/133 226/140/150
f 103/71/132 93/66/123 228/142/124 227/141/133
f 93/66/123 91/64/122 229/143/125 228/142/124
f 91/64/122 96/68/137 230/144/138 229/143/125
f 96/68/137 106/73/154 231/145/155 230/144/138
f 106/73/154 134/90/101 232/146/108 231/145/155
f 134/90/101 85/58/100 233/147/109 232/146/108
f 234/148/105 265/175/117 266/176/113 89/62/112
f 235/149/106 234/148/105 89/62/112 86/59/244
f 236/150/247 235/149/106 86/59/244 211/127/246
f 237/266/259 236/150/247 211/127/246 201/259/258
f 44/33/169 239/151/57 238/230/56 47/217/170
f 52/36/179 240/152/66 239/151/57 44/33/169
f 40/30/189 241/153/84 240/152/66 52/36/179
f 173/109/158 242/154/44 241/153/84 40/30/189
f 14/10/157 243/155/45 242/154/44 173/109/158
f 14/10/157 188/118/231 244/156/230 243/155/45
f 245/157/95 244/156/230 188/118/231 159/98/199
f 246/158/39 245/157/95 159/98/199 68/47/151
f 247/159/24 246/158/39 68/47/151 35/26/134
f 248/160/17 247/159/24 35/26/134 23/19/127
f 249/161/18 248/160/17 23/19/127 20/16/126
f 250/162/28 249/161/18 20/16/126 27/22/139
f 251/163/43 250/162/28 27/22/139 39/29/156
f 252/164/5 251/163/43 39/29/156 74/51/111
f 253/165/6 252/164/5 74/51/111 13/9/110
f 263/173/208 264/174/116 75/52/104 254/166/205
f 75/52/104 12/8/107 255/167/206 254/166/205
f 256/168/252 255/167/206 12/8/107 212/128/248
f 257/268/261 256/168/252 212/128/248 202/267/260
f 217/269/267 259/169/243 258/273/266 199/274/268
f 70/265/96 260/170/99 259/169/243 217/269/267
f 261/171/9 260/170/99 70/265/96 9/5/2
f 262/172/10 261/171/9 9/5/2 10/6/1
f 253/165/6 263/173/208 262/172/10 10/6/1
f 13/9/110 264/174/116 263/173/208 253/165/6
f 13/9/110 233/147/109 265/175/117 264/174/116
f 266/176/113 265/175/117 233/147/109 85/58/100
f 267/177/114 266/176/113 85/58/100 84/57/103
f 268/178/203 267/177/114 84/57/103 131/208/202
f 269/179/250 268/178/203 131/208/202 207/216/269
f 270/227/254 269/179/250 207/216/269 204/226/270
f 60/246/86 61/40/31 28/245/30 271/258/271
f 123/81/142 60/196/86 271/203/271 97/197/143
# totals: 271 275 271 230
