# author: headus 3D tools
#  using: ply2obj v1.8
#   from: uvlayout v2.09.04
mtllib Mouse_LP.mtl
# 645 vertices
v 0.1270000 4.2290000 1.2300000
v 0.0487830 4.1721720 1.2300000
v -0.0478990 4.1721720 1.2300000
v -0.1261160 4.2290000 1.2300000
v -0.1559920 4.3209499 1.2300000
v -0.1261160 4.4128998 1.2300000
v -0.0478990 4.4697279 1.2300000
v 0.0487830 4.4697279 1.2300000
v 0.1270000 4.4128998 1.2300000
v 0.1568759 4.3209499 1.2300000
v 0.3677279 4.0541009 1.1499440
v 0.1407329 3.8891792 1.1499450
v -0.1398490 3.8891792 1.1499440
v -0.3668440 4.0541009 1.1499440
v -0.4535490 4.3209499 1.1499440
v -0.3668440 4.5877990 1.1499450
v -0.1398490 4.7527212 1.1499450
v 0.1407329 4.7527212 1.1499450
v 0.3677279 4.5877990 1.1499450
v 0.4544329 4.3209499 1.1499440
v 0.5725030 3.9053232 0.9845370
v 0.2189500 3.6484510 0.9845370
v -0.2180660 3.6484510 0.9845370
v -0.5716200 3.9053232 0.9845370
v -0.7066650 4.3209499 0.9845370
v -0.5716190 4.7365769 0.9845370
v -0.2180660 4.9934491 0.9845370
v 0.2189500 4.9934491 0.9845370
v 0.5725030 4.7365769 0.9845370
v 0.7075490 4.3209499 0.9845370
v 0.7212818 3.7972292 0.6487550
v 0.2757779 3.4735522 0.6487550
v -0.2748940 3.4735522 0.6487550
v -0.7203980 3.7972292 0.6487550
v -0.8905650 4.3209499 0.6487550
v -0.7203980 4.8446711 0.6487550
v -0.2748940 5.1683482 0.6487550
v 0.2757779 5.1683482 0.6487550
v 0.7212810 4.8446711 0.6487550
v 0.8914490 4.3209499 0.6487550
v 0.7994990 3.7404012 0.2236541
v 0.3056539 3.3816022 0.2236541
v -0.3047710 3.3816022 0.2236541
v -0.7986151 3.7404012 0.2236541
v -0.9872460 4.3209499 0.2236541
v -0.7986151 4.9014991 0.2236541
v -0.3047700 5.2602981 0.2236541
v 0.3056550 5.2602981 0.2236541
v 0.7994990 4.9014991 0.2236541
v 0.9881300 4.3209499 0.2236541
v 0.7994990 3.7404012 -0.2233241
v 0.3056539 3.3816022 -0.2233241
v -0.3047710 3.3816022 -0.2233241
v -0.7986151 3.7404012 -0.2233241
v -0.9872460 4.3209499 -0.2233241
v -0.7986151 4.9014991 -0.2233241
v -0.3047700 5.2602981 -0.2233241
v 0.3056550 5.2602972 -0.2233241
v 0.7994990 4.9014991 -0.2233241
v 0.9881300 4.3209499 -0.2233241
v 0.7212818 3.7972292 -0.6484252
v 0.2757779 3.4735522 -0.6484252
v -0.2748940 3.4735522 -0.6484252
v -0.7203980 3.7972292 -0.6484252
v -0.8905650 4.3209499 -0.6484252
v -0.7203980 4.8446711 -0.6484252
v -0.2748940 5.1683482 -0.6484252
v 0.2757779 5.1683482 -0.6484252
v 0.7212810 4.8446711 -0.6484252
v 0.8914490 4.3209499 -0.6484252
v 0.5725030 3.9053232 -1.0100374
v 0.2189500 3.6484510 -1.0100374
v -0.2180660 3.6484510 -1.0100374
v -0.5716200 3.9053232 -1.0100374
v -0.7066650 4.3209499 -1.0100374
v -0.5716190 4.7365769 -1.0100374
v -0.2180660 4.9934491 -1.0100374
v 0.2189500 4.9934491 -1.0100374
v 0.5725030 4.7365769 -1.0100374
v 0.7075490 4.3209499 -1.0100374
v 0.3677279 4.0541009 -1.2727644
v 0.1407329 3.8891792 -1.2727644
v -0.1398490 3.8891792 -1.2727644
v -0.3668440 4.0541009 -1.2727644
v -0.4535490 4.3209499 -1.2727644
v -0.3668440 4.5877990 -1.2727644
v -0.1398490 4.7527212 -1.2727644
v 0.1407329 4.7527212 -1.2727644
v 0.3677279 4.5877990 -1.2727644
v 0.4544329 4.3209499 -1.2727644
v 0.1270000 4.2290000 -1.4108884
v 0.0487830 4.1721720 -1.4108872
v -0.0478990 4.1721720 -1.4108884
v -0.1261160 4.2290000 -1.4108872
v -0.1559920 4.3209499 -1.4108872
v -0.1261160 4.4128998 -1.4108872
v -0.0478990 4.4697279 -1.4108872
v 0.0487830 4.4697279 -1.4108872
v 0.1270000 4.4128998 -1.4108872
v 0.1568759 4.3209499 -1.4108872
v 0.0487830 4.3209499 1.2730879
v -0.0478990 4.3209499 1.2730879
v 0.0487830 4.3209499 -1.4380112
v -0.0478990 4.3209499 -1.4380112
v 0.1270000 3.5389892 0.3266010
v 0.0487830 3.5389892 0.3834290
v -0.0478990 3.5389892 0.3834290
v -0.1261160 3.5389892 0.3266010
v -0.1559920 3.5389892 0.2346509
v -0.1261160 3.5389892 0.1427010
v -0.0478990 3.5389892 0.0858729
v 0.0487830 3.5389892 0.0858729
v 0.1270000 3.5389892 0.1427010
v 0.1568759 3.5389892 0.2346509
v 0.2504420 3.4661590 0.4162869
v 0.0959330 3.4661590 0.5285440
v -0.0950500 3.4661590 0.5285440
v -0.2495580 3.4661590 0.4162869
v -0.3085750 3.4661590 0.2346509
v -0.2495580 3.4661590 0.0530150
v -0.0950490 3.4661590 -0.0592421
v 0.0959340 3.4661590 -0.0592421
v 0.2504420 3.4661590 0.0530150
v 0.3094588 3.4661590 0.2346509
v 0.3677279 3.3174261 0.5015000
v 0.1407329 3.3174261 0.6664220
v -0.1398490 3.3174261 0.6664220
v -0.3668440 3.3174261 0.5015000
v -0.4535490 3.3174261 0.2346509
v -0.3668440 3.3174261 -0.0321982
v -0.1398490 3.3174261 -0.1971201
v 0.1407329 3.3174261 -0.1971201
v 0.3677279 3.3174261 -0.0321982
v 0.4544329 3.3174261 0.2346509
v 0.4759700 3.0943240 0.5801429
v 0.1820780 3.0943240 0.7936680
v -0.1811940 3.0943240 0.7936680
v -0.4750860 3.0943240 0.5801429
v -0.5873429 3.0943240 0.2346509
v -0.4750860 3.0943240 -0.1108400
v -0.1811940 3.0943240 -0.3243660
v 0.1820780 3.0943240 -0.3243660
v 0.4759700 3.0943240 -0.1108400
v 0.5882270 3.0943240 0.2346509
v 0.5725030 2.8026510 0.6502780
v 0.2189500 2.8026510 0.9071500
v -0.2180660 2.8026510 0.9071500
v -0.5716200 2.8026510 0.6502780
v -0.7066650 2.8026510 0.2346509
v -0.5716190 2.8026510 -0.1809762
v -0.2180660 2.8026510 -0.4378473
v 0.2189500 2.8026510 -0.4378473
v 0.5725030 2.8026510 -0.1809762
v 0.7075490 2.8026510 0.2346509
v 0.6549510 2.4538588 0.7101790
v 0.2504420 2.4538588 1.0040720
v -0.2495580 2.4538588 1.0040720
v -0.6540670 2.4538588 0.7101790
v -0.8085750 2.4538588 0.2346509
v -0.6540670 2.4538588 -0.2408770
v -0.2495580 2.4538588 -0.5347702
v 0.2504420 2.4538588 -0.5347702
v 0.6549510 2.4538588 -0.2408770
v 0.8094590 2.4538588 0.2346509
v 0.7212818 2.0655152 0.7583720
v 0.2757779 2.0655152 1.0820491
v -0.2748940 2.0655152 1.0820491
v -0.7203980 2.0655152 0.7583720
v -0.8905650 2.0655152 0.2346509
v -0.7203980 2.0655152 -0.2890701
v -0.2748940 2.0655152 -0.6127470
v 0.2757779 2.0655152 -0.6127464
v 0.7212810 2.0655152 -0.2890691
v 0.8914490 2.0655152 0.2346509
v 0.7698629 1.6602388 0.7936680
v 0.2943350 1.6602388 1.1391601
v -0.2934510 1.6602388 1.1391601
v -0.7689790 1.6602388 0.7936680
v -0.9506150 1.6602388 0.2346509
v -0.7689790 1.6602388 -0.3243660
v -0.2934510 1.6602388 -0.6698570
v 0.2943350 1.6602388 -0.6698570
v 0.7698629 1.6602388 -0.3243660
v 0.9514990 1.6602388 0.2346509
v 0.7994990 1.2629660 0.8152000
v 0.3056539 1.2629660 1.1739990
v -0.3047710 1.2629660 1.1739990
v -0.7986151 1.2629660 0.8152000
v -0.9872460 1.2629660 0.2346509
v -0.7986151 1.2629660 -0.3458983
v -0.3047700 1.2629660 -0.7046960
v 0.3056550 1.2629660 -0.7046960
v 0.7994990 1.2629660 -0.3458983
v 0.9881300 1.2629660 0.2346509
v 0.8094590 0.9271970 0.8224370
v 0.3094588 0.9271970 1.1857080
v -0.3085750 0.9271970 1.1857080
v -0.8085750 0.9271970 0.8224360
v -0.9995582 0.9271970 0.2346509
v -0.8085750 0.9271970 -0.3531342
v -0.3085750 0.9271970 -0.7164052
v 0.3094588 0.9271970 -0.7164052
v 0.8094590 0.9271970 -0.3531342
v 1.0004420 0.9271970 0.2346509
v 0.7994990 0.6860480 0.8152000
v 0.3056539 0.6860480 1.1739990
v -0.3047710 0.6860480 1.1739990
v -0.7986151 0.6860480 0.8152000
v -0.9872460 0.6860480 0.2346509
v -0.7986151 0.6860480 -0.3458983
v -0.3047700 0.6860480 -0.7046960
v 0.3056550 0.6860480 -0.7046960
v 0.7994990 0.6860480 -0.3458983
v 0.9881300 0.6860480 0.2346509
v 0.7698629 0.5159900 0.7936680
v 0.2943350 0.5159900 1.1391601
v -0.2934510 0.5159900 1.1391601
v -0.7689790 0.5159900 0.7936680
v -0.9506150 0.5159900 0.2346509
v -0.7689790 0.5159900 -0.3243660
v -0.2934510 0.5159900 -0.6698570
v 0.2943350 0.5159900 -0.6698570
v 0.7698629 0.5159900 -0.3243660
v 0.9514990 0.5159900 0.2346509
v 0.7212818 0.3917320 0.7583720
v 0.2757779 0.3917320 1.0820491
v -0.2748940 0.3917320 1.0820491
v -0.7203980 0.3917320 0.7583720
v -0.8905650 0.3917320 0.2346509
v -0.7203980 0.3917320 -0.2890701
v -0.2748940 0.3917320 -0.6127470
v 0.2757779 0.3917320 -0.6127464
v 0.7212810 0.3917320 -0.2890691
v 0.8914490 0.3917320 0.2346509
v 0.5725030 0.2088800 0.6502780
v 0.2189500 0.2088800 0.9071500
v -0.2180660 0.2088800 0.9071500
v -0.5716200 0.2088800 0.6502780
v -0.7066650 0.2088800 0.2346509
v -0.5716190 0.2088800 -0.1809762
v -0.2180660 0.2088800 -0.4378473
v 0.2189500 0.2088800 -0.4378473
v 0.5725030 0.2088800 -0.1809762
v 0.7075490 0.2088800 0.2346509
v 0.3677279 0.1485780 0.5015000
v 0.1407329 0.1485780 0.6664220
v -0.1398490 0.1485780 0.6664220
v -0.3668440 0.1485780 0.5015000
v -0.4535490 0.1485780 0.2346509
v -0.3668440 0.1485780 -0.0321982
v -0.1398490 0.1485780 -0.1971201
v 0.1407329 0.1485780 -0.1971201
v 0.3677279 0.1485780 -0.0321982
v 0.4544329 0.1485780 0.2346509
v 0.1270000 0.1091860 0.3266010
v 0.0487830 0.1091860 0.3834290
v -0.0478990 0.1091860 0.3834290
v -0.1261160 0.1091860 0.3266010
v -0.1559920 0.1091860 0.2346509
v -0.1261160 0.1091860 0.1427010
v -0.0478990 0.1091860 0.0858729
v 0.0487830 0.1091860 0.0858729
v 0.1270000 0.1091860 0.1427010
v 0.1568759 0.1091860 0.2346509
v 0.0487830 3.5661132 0.2346509
v -0.0478990 3.5661132 0.2346509
v 0.0487830 0.0820620 0.2346509
v -0.0478990 0.0820620 0.2346509
v 0.0258160 2.6936431 2.1948450
v -0.0013980 2.6915311 2.2046449
v -0.0274859 2.6991812 2.1945419
v -0.0371640 2.7121111 2.1704530
v -0.0247650 2.7227468 2.1464890
v 0.0024500 2.7248591 2.1366889
v 0.0285380 2.7172101 2.1467910
v 0.0382161 2.7042791 2.1708801
v 0.1159610 0.5880968 0.9431430
v 0.0000430 0.5562748 0.9790730
v -0.1158610 0.5881520 0.9431470
v -0.1638560 0.6650520 0.8564110
v -0.1158280 0.7419300 0.7696720
v 0.0000900 0.7737520 0.7337430
v 0.1159941 0.7418752 0.7696690
v 0.1639889 0.6649748 0.8564050
v 0.0412030 1.8244550 1.9008740
v 0.0781370 1.8685772 1.8314240
v 0.0461450 1.9164550 1.7620078
v -0.0360330 1.9400408 1.7332899
v -0.1202580 1.9255188 1.7620920
v -0.1571920 1.8813970 1.8315420
v -0.1252000 1.8335188 1.9009570
v -0.0430220 1.8099326 1.9296759
v 0.0344240 2.3561850 2.1122010
v 0.0629000 2.3833230 2.0575609
v 0.0400530 2.4150602 2.0027558
v -0.0207350 2.4328040 1.9798879
v -0.0838540 2.4261622 2.0023551
v -0.1123300 2.3990242 2.0569948
v -0.0894830 2.3672870 2.1118009
v -0.0286950 2.3495418 2.1346678
v 0.0005260 2.8762368 2.1842370
v 0.0711060 1.2373670 1.5496679
v 0.1124780 1.2945918 1.4733019
v 0.0740840 1.3540786 1.3969579
v -0.0215840 1.3809810 1.3653570
v -0.1184860 1.3595400 1.3970099
v -0.1598580 1.3023152 1.4733749
v -0.1214640 1.2428284 1.5497199
v -0.0257959 1.2159258 1.5813210
v 0.2223490 0.0003968 0.6933670
v 0.2765780 0.1672948 0.6933670
v 0.4185509 0.2704452 0.6933670
v 0.5940390 0.2704452 0.6933670
v 0.7360120 0.1672948 0.6933670
v 0.7902410 0.0003968 0.6933670
v 0.3002050 0.0003968 -1.3066330
v 0.3395650 0.1215340 -1.3066330
v 0.4426099 0.1963988 -1.3066330
v 0.5699810 0.1963988 -1.3066330
v 0.6730260 0.1215340 -1.3066330
v 0.7123860 0.0003968 -1.3066330
v 0.5062950 0.0003968 0.6933670
v 0.5062950 0.0003968 -2.0907190
v 0.7902410 0.0003968 -0.3066332
v 0.7360120 0.1672948 -0.3066332
v 0.5940390 0.2704452 -0.3066332
v 0.4185509 0.2704452 -0.3066332
v 0.2765780 0.1672948 -0.3066332
v 0.2223490 0.0003968 -0.3066332
v 0.5062950 0.0003968 -1.3066330
v 0.5062950 0.0003968 -0.3066332
v -0.2214650 0.0003968 0.6933670
v -0.2756940 0.1672948 0.6933670
v -0.4176670 0.2704452 0.6933670
v -0.5931550 0.2704452 0.6933670
v -0.7351280 0.1672948 0.6933670
v -0.7893571 0.0003968 0.6933670
v -0.2993210 0.0003968 -1.3066330
v -0.3386810 0.1215340 -1.3066330
v -0.4417260 0.1963988 -1.3066330
v -0.5690970 0.1963988 -1.3066330
v -0.6721420 0.1215340 -1.3066330
v -0.7115020 0.0003968 -1.3066330
v -0.5054110 0.0003968 0.6933670
v -0.5054110 0.0003968 -2.0907190
v -0.7893571 0.0003968 -0.3066332
v -0.7351280 0.1672948 -0.3066332
v -0.5931550 0.2704452 -0.3066332
v -0.4176670 0.2704452 -0.3066332
v -0.2756940 0.1672948 -0.3066332
v -0.2214650 0.0003968 -0.3066332
v -0.5054110 0.0003968 -0.3066332
v -0.5054110 0.0003968 -1.3066330
v 0.5771720 2.5862251 0.0780349
v 0.6623009 2.6369561 0.1102340
v 0.7149140 2.6683091 0.1945330
v 0.7149140 2.6683091 0.2987320
v 0.6623009 2.6369561 0.3830300
v 0.5771720 2.5862251 0.4152289
v 1.2725217 1.4697632 0.1613429
v 1.2949242 1.4831140 0.1776321
v 1.2987019 1.5290320 0.2202759
v 1.2987019 1.5290320 0.2729879
v 1.2949242 1.4831140 0.3156320
v 1.2725217 1.4697632 0.3319210
v 0.4781620 2.6571310 0.2466317
v 0.9199310 2.0250650 0.4152289
v 0.9930830 2.0686578 0.3830300
v 1.0382940 2.0955998 0.2987320
v 1.0382940 2.0955998 0.1945330
v 0.9930830 2.0686578 0.1102340
v 0.9199310 2.0250650 0.0780349
v 1.2563311 1.4490400 0.2466317
v 0.8578120 2.0474636 0.2466317
v 1.2282810 1.0114736 0.3414180
v 1.2122373 1.2745030 0.0583929
v 1.2282810 1.0114736 0.1527349
v 1.2104392 1.5375320 0.3414180
v 1.2090431 1.4263630 0.4104809
v 1.2078070 1.4060168 0.1999059
v 1.2122373 1.2745030 0.4357600
v 1.2104392 1.2745030 0.2470759
v 1.2280082 1.1226428 0.0836720
v 1.2104392 1.5375320 0.1527349
v 1.3048171 1.4060168 0.1999059
v 1.3020520 1.5375320 0.3414180
v 1.3020520 1.4263630 0.4104809
v 1.3020520 1.2745030 0.4357600
v 1.2416570 1.0114736 0.3414180
v 1.2416570 1.0114736 0.1527349
v 1.3020520 1.2745030 0.0583929
v 1.2426842 1.1226428 0.0836720
v 1.3020520 1.5375320 0.1527349
v -0.5762880 2.5862251 0.0780349
v -0.6614170 2.6369561 0.1102340
v -0.7140300 2.6683091 0.1945330
v -0.7140300 2.6683091 0.2987320
v -0.6614170 2.6369561 0.3830300
v -0.5762880 2.5862251 0.4152289
v -1.2716382 1.4697632 0.1613429
v -1.2940403 1.4831140 0.1776321
v -1.2978181 1.5290320 0.2202759
v -1.2978181 1.5290320 0.2729879
v -1.2940403 1.4831140 0.3156320
v -1.2716382 1.4697632 0.3319210
v -0.4772780 2.6571310 0.2466317
v -0.9190470 2.0250650 0.4152289
v -0.9921990 2.0686578 0.3830300
v -1.0374103 2.0955998 0.2987320
v -1.0374103 2.0955998 0.1945330
v -0.9921990 2.0686578 0.1102340
v -0.9190470 2.0250650 0.0780349
v -1.2554470 1.4490400 0.2466317
v -0.8569280 2.0474636 0.2466317
v -1.2273972 1.0114736 0.3414180
v -1.2113530 1.2745030 0.0583929
v -1.2273972 1.0114736 0.1527349
v -1.2095551 1.5375320 0.3414180
v -1.2081591 1.4263630 0.4104809
v -1.2069231 1.4060168 0.1999059
v -1.2113530 1.2745030 0.4357600
v -1.2095551 1.2745030 0.2470759
v -1.2271241 1.1226428 0.0836720
v -1.2095551 1.5375320 0.1527349
v -1.3039330 1.4060168 0.1999059
v -1.3011681 1.5375320 0.3414180
v -1.3011681 1.4263630 0.4104809
v -1.3011681 1.2745030 0.4357600
v -1.2407732 1.0114736 0.3414180
v -1.2407732 1.0114736 0.1527349
v -1.3011681 1.2745030 0.0583929
v -1.2417999 1.1226428 0.0836720
v -1.3011681 1.5375320 0.1527349
v 1.3161012 4.8185142 0.7012070
v 0.1209730 5.4963552 0.7012070
v 1.3942131 6.6020632 0.7012070
v 0.4589579 4.8123529 0.7012070
v 0.5763879 6.4603842 0.7012070
v 1.5517070 5.0190691 0.7012070
v 0.1632959 5.1973991 0.7012070
v 1.8216014 5.4219303 0.7012070
v 1.2861062 5.4101910 0.7012070
v 0.9184220 4.7251042 0.7012070
v 0.5419070 5.1540803 0.7012070
v 1.0343130 4.9803022 0.7012070
v 0.7216829 5.5645293 0.7012070
v 1.3363461 5.9217472 0.7012070
v 0.1501089 5.8201550 0.7012070
v 0.2894989 5.5311860 0.7012070
v 0.3151110 6.2101922 0.7012070
v 0.6820460 6.2641072 0.7012070
v 0.4737280 5.9762564 0.7012070
v 0.8933629 5.8715500 0.7012070
v 1.0225210 6.6398044 0.7012070
v 1.6421121 6.4282880 0.7012070
v 1.1266050 6.3789144 0.7012070
v 1.8608820 6.0218844 0.7012070
v 1.2861062 5.4101910 0.6155630
v 1.8216014 5.4219303 0.6155630
v 1.5517070 5.0190691 0.6155630
v 1.3161012 4.8185142 0.6155630
v 0.9184220 4.7251042 0.6155630
v 0.4589579 4.8123529 0.6155630
v 0.5419070 5.1540803 0.6155630
v 1.0343130 4.9803022 0.6155630
v 0.7216829 5.5645293 0.6155630
v 1.3363461 5.9217472 0.6155630
v 0.1632959 5.1973991 0.6155630
v 0.2894989 5.5311860 0.6155630
v 0.1209730 5.4963552 0.6155630
v 0.1501089 5.8201550 0.6155630
v 0.3151110 6.2101922 0.6155630
v 0.5763879 6.4603842 0.6155630
v 0.6820460 6.2641072 0.6155630
v 0.4737280 5.9762564 0.6155630
v 0.8933629 5.8715500 0.6155630
v 1.0225210 6.6398034 0.6155630
v 1.3942131 6.6020622 0.6155630
v 1.6421121 6.4282880 0.6155630
v 1.1266050 6.3789144 0.6155630
v 1.8608820 6.0218844 0.6155630
v -1.3152173 4.8185142 0.7012070
v -0.1200890 5.4963552 0.7012070
v -1.3933290 6.6020632 0.7012070
v -0.4580740 4.8123529 0.7012070
v -0.5755040 6.4603842 0.7012070
v -1.5508232 5.0190691 0.7012070
v -0.1624120 5.1973991 0.7012070
v -1.8207170 5.4219293 0.7012070
v -1.2852219 5.4101902 0.7012070
v -0.9175381 4.7251042 0.7012070
v -0.5410230 5.1540803 0.7012070
v -1.0334290 4.9803022 0.7012070
v -0.7207990 5.5645293 0.7012070
v -1.3354620 5.9217472 0.7012070
v -0.1492250 5.8201561 0.7012070
v -0.2886150 5.5311860 0.7012070
v -0.3142270 6.2101922 0.7012070
v -0.6811620 6.2641066 0.7012070
v -0.4728440 5.9762564 0.7012070
v -0.8924791 5.8715500 0.7012070
v -1.0216372 6.6398044 0.7012070
v -1.6412282 6.4282880 0.7012070
v -1.1257211 6.3789144 0.7012070
v -1.8599990 6.0218844 0.7012070
v -1.2852219 5.4101902 0.6155630
v -1.8207170 5.4219293 0.6155630
v -1.5508232 5.0190691 0.6155630
v -1.3152173 4.8185142 0.6155630
v -0.9175381 4.7251042 0.6155630
v -0.4580740 4.8123529 0.6155630
v -0.5410230 5.1540803 0.6155630
v -1.0334290 4.9803022 0.6155630
v -0.7207990 5.5645293 0.6155630
v -1.3354620 5.9217472 0.6155630
v -0.1624120 5.1973991 0.6155630
v -0.2886150 5.5311860 0.6155630
v -0.1200890 5.4963552 0.6155630
v -0.1492250 5.8201561 0.6155630
v -0.3142270 6.2101922 0.6155630
v -0.5755040 6.4603842 0.6155630
v -0.6811620 6.2641066 0.6155630
v -0.4728440 5.9762564 0.6155630
v -0.8924791 5.8715500 0.6155630
v -1.0216372 6.6398034 0.6155630
v -1.3933290 6.6020632 0.6155630
v -1.6412282 6.4282880 0.6155630
v -1.1257211 6.3789144 0.6155630
v -1.8599990 6.0218844 0.6155630
v 0.7616070 4.7668578 -0.2842501
v 0.6962270 4.7388219 -0.2667311
v 0.6308470 4.7668589 -0.2492131
v 0.6037650 4.8345450 -0.2419562
v 0.6308470 4.9022311 -0.2492131
v 0.6962270 4.9302682 -0.2667311
v 0.7616070 4.9022311 -0.2842501
v 0.7886879 4.8345450 -0.2915061
v 0.8029990 4.7094773 -0.3514761
v 0.6821930 4.6576723 -0.3191060
v 0.5613860 4.7094773 -0.2867361
v 0.5113460 4.8345450 -0.2733282
v 0.5613860 4.9596131 -0.2867361
v 0.6821930 5.0114182 -0.3191060
v 0.8029990 4.9596131 -0.3514761
v 0.8530390 4.8345450 -0.3648839
v 0.8190309 4.6711363 -0.4397853
v 0.6611900 4.6034492 -0.3974910
v 0.5033480 4.6711363 -0.3551981
v 0.4379679 4.8345450 -0.3376791
v 0.5033480 4.9979552 -0.3551981
v 0.6611900 5.0656413 -0.3974910
v 0.8190309 4.9979552 -0.4397853
v 0.8844110 4.8345450 -0.4573032
v 0.8072610 4.6576723 -0.5357310
v 0.6364149 4.5844091 -0.4899532
v 0.4655680 4.6576723 -0.4441740
v 0.3948009 4.8345450 -0.4252123
v 0.4655680 5.0114182 -0.4441740
v 0.6364149 5.0846809 -0.4899532
v 0.8072610 5.0114182 -0.5357310
v 0.8780280 4.8345450 -0.5546932
v 0.7694810 4.6711363 -0.6247072
v 0.6116400 4.6034492 -0.5824144
v 0.4537980 4.6711363 -0.5401202
v 0.3884179 4.8345450 -0.5226022
v 0.4537980 4.9979552 -0.5401202
v 0.6116400 5.0656413 -0.5824144
v 0.7694810 4.9979552 -0.6247072
v 0.8348610 4.8345450 -0.6422260
v 0.7114429 4.7094773 -0.6931690
v 0.5906360 4.6576723 -0.6607994
v 0.4698299 4.7094773 -0.6284290
v 0.4197900 4.8345450 -0.6150212
v 0.4698299 4.9596131 -0.6284290
v 0.5906360 5.0114182 -0.6607994
v 0.7114429 4.9596131 -0.6931690
v 0.7614830 4.8345450 -0.7065772
v 0.6419830 4.7668589 -0.7306922
v 0.5766030 4.7388219 -0.7131740
v 0.5112230 4.7668589 -0.6956550
v 0.4841409 4.8345450 -0.6883992
v 0.5112230 4.9022311 -0.6956550
v 0.5766030 4.9302682 -0.7131740
v 0.6419830 4.9022311 -0.7306922
v 0.6690640 4.8345450 -0.7379490
v 0.7011550 4.8345450 -0.2483391
v 0.5716749 4.8345450 -0.7315660
v -0.7607230 4.7668578 -0.2842501
v -0.6953430 4.7388219 -0.2667311
v -0.6299620 4.7668578 -0.2492131
v -0.6028809 4.8345450 -0.2419562
v -0.6299620 4.9022311 -0.2492131
v -0.6953430 4.9302682 -0.2667311
v -0.7607230 4.9022311 -0.2842501
v -0.7878040 4.8345450 -0.2915061
v -0.8021150 4.7094773 -0.3514761
v -0.6813090 4.6576723 -0.3191060
v -0.5605020 4.7094773 -0.2867361
v -0.5104620 4.8345450 -0.2733282
v -0.5605020 4.9596131 -0.2867361
v -0.6813090 5.0114182 -0.3191060
v -0.8021150 4.9596131 -0.3514761
v -0.8521551 4.8345450 -0.3648839
v -0.8181470 4.6711363 -0.4397853
v -0.6603059 4.6034492 -0.3974910
v -0.5024640 4.6711363 -0.3551981
v -0.4370840 4.8345450 -0.3376791
v -0.5024640 4.9979552 -0.3551981
v -0.6603059 5.0656413 -0.3974910
v -0.8181470 4.9979552 -0.4397853
v -0.8835270 4.8345450 -0.4573032
v -0.8063770 4.6576723 -0.5357310
v -0.6355300 4.5844091 -0.4899532
v -0.4646840 4.6576723 -0.4441740
v -0.3939170 4.8345450 -0.4252123
v -0.4646840 5.0114182 -0.4441740
v -0.6355300 5.0846809 -0.4899532
v -0.8063770 5.0114182 -0.5357310
v -0.8771440 4.8345450 -0.5546932
v -0.7685970 4.6711363 -0.6247072
v -0.6107550 4.6034492 -0.5824144
v -0.4529140 4.6711363 -0.5401202
v -0.3875340 4.8345450 -0.5226022
v -0.4529140 4.9979552 -0.5401202
v -0.6107550 5.0656413 -0.5824144
v -0.7685970 4.9979552 -0.6247072
v -0.8339770 4.8345450 -0.6422260
v -0.7105589 4.7094773 -0.6931690
v -0.5897520 4.6576723 -0.6607994
v -0.4689460 4.7094773 -0.6284290
v -0.4189060 4.8345450 -0.6150212
v -0.4689460 4.9596131 -0.6284290
v -0.5897520 5.0114182 -0.6607994
v -0.7105589 4.9596131 -0.6931690
v -0.7605990 4.8345450 -0.7065772
v -0.6410990 4.7668578 -0.7306922
v -0.5757190 4.7388219 -0.7131740
v -0.5103390 4.7668578 -0.6956550
v -0.4832570 4.8345450 -0.6883992
v -0.5103390 4.9022311 -0.6956550
v -0.5757190 4.9302682 -0.7131740
v -0.6410990 4.9022311 -0.7306922
v -0.6681800 4.8345450 -0.7379490
v -0.7002710 4.8345450 -0.2483391
v -0.5707909 4.8345450 -0.7315660
# 661 normals
vn 0.081731 -0.248367 0.965116
vn 0.146463 -0.450803 0.880486
vn 0.383477 -0.278551 0.880516
vn 0.218672 -0.158823 0.962766
vn -0.081731 -0.248367 0.965116
vn -0.146463 -0.450803 0.880486
vn -0.218672 -0.158823 0.962766
vn -0.383477 -0.278551 0.880516
vn -0.262803 0.000000 0.964811
vn -0.473936 0.000000 0.880486
vn -0.218672 0.158823 0.962766
vn -0.383477 0.278551 0.880486
vn -0.081731 0.248367 0.965116
vn -0.146463 0.450803 0.880486
vn 0.081731 0.248367 0.965116
vn 0.146463 0.450803 0.880516
vn 0.218672 0.158823 0.962766
vn 0.383477 0.278551 0.880486
vn 0.262803 0.000000 0.964811
vn 0.473936 0.000000 0.880486
vn 0.246170 -0.757828 0.604010
vn 0.644632 -0.468382 0.604010
vn -0.246170 -0.757828 0.604010
vn -0.644632 -0.468382 0.604010
vn -0.796893 0.000000 0.604010
vn -0.644632 0.468382 0.604010
vn -0.246170 0.757828 0.604010
vn 0.246170 0.757828 0.604010
vn 0.644632 0.468382 0.604010
vn 0.796893 0.000000 0.604010
vn 0.292010 -0.898889 0.326344
vn 0.764695 -0.555515 0.326344
vn -0.292010 -0.898889 0.326344
vn -0.764695 -0.555515 0.326344
vn -0.945218 0.000000 0.326344
vn -0.764695 0.555515 0.326344
vn -0.292010 0.898889 0.326344
vn 0.292010 0.898889 0.326344
vn 0.764695 0.555515 0.326344
vn 0.945218 0.000000 0.326344
vn 0.307300 -0.945736 0.104895
vn 0.804523 -0.584478 0.104895
vn -0.307300 -0.945736 0.104895
vn -0.804523 -0.584478 0.104895
vn -0.994415 0.000000 0.104895
vn -0.804523 0.584478 0.104895
vn -0.307300 0.945736 0.104895
vn 0.307300 0.945736 0.104895
vn 0.804523 0.584478 0.104895
vn 0.994415 0.000000 0.104895
vn 0.307300 -0.945736 -0.104895
vn 0.804523 -0.584478 -0.104895
vn -0.307300 -0.945736 -0.104895
vn -0.804523 -0.584478 -0.104895
vn -0.994415 0.000000 -0.104895
vn -0.804523 0.584478 -0.104895
vn -0.307300 0.945736 -0.104895
vn 0.307300 0.945736 -0.104895
vn 0.804523 0.584478 -0.104895
vn 0.994415 0.000000 -0.104895
vn 0.292895 -0.901453 -0.318623
vn 0.766831 -0.557071 -0.318623
vn -0.292895 -0.901453 -0.318623
vn -0.766831 -0.557071 -0.318623
vn -0.947781 0.000000 -0.318623
vn -0.766831 0.557071 -0.318623
vn -0.292895 0.901453 -0.318623
vn 0.292895 0.901453 -0.318623
vn 0.766831 0.557071 -0.318623
vn 0.947781 0.000000 -0.318623
vn 0.259904 -0.800098 -0.540591
vn 0.680522 -0.494415 -0.540591
vn -0.259904 -0.800098 -0.540591
vn -0.680522 -0.494415 -0.540591
vn -0.841268 0.000000 -0.540591
vn -0.680522 0.494415 -0.540591
vn -0.259904 0.800098 -0.540591
vn 0.259904 0.800098 -0.540591
vn 0.680522 0.494415 -0.540591
vn 0.841268 0.000000 -0.540591
vn 0.201642 -0.620643 -0.757706
vn 0.527864 -0.383568 -0.757706
vn -0.201642 -0.620643 -0.757706
vn -0.527864 -0.383568 -0.757706
vn -0.652506 0.000000 -0.757706
vn -0.527864 0.383568 -0.757706
vn -0.201642 0.620643 -0.757706
vn 0.201642 0.620643 -0.757706
vn 0.527864 0.383568 -0.757706
vn 0.652506 0.000000 -0.757706
vn 0.120888 -0.370628 -0.920802
vn 0.323353 -0.234908 -0.916529
vn -0.120888 -0.370628 -0.920802
vn -0.323353 -0.234908 -0.916529
vn -0.395471 0.000000 -0.918391
vn -0.323353 0.234908 -0.916529
vn -0.120888 0.370628 -0.920802
vn 0.120888 0.370628 -0.920802
vn 0.323353 0.234908 -0.916529
vn 0.395471 0.000000 -0.918391
vn 0.121498 0.000000 0.992523
vn -0.121498 0.000000 0.992523
vn 0.078588 0.000000 -0.996826
vn -0.078588 0.000000 -0.996826
vn 0.309101 0.924068 0.224562
vn 0.112769 0.932216 0.343618
vn 0.200452 0.761002 0.616950
vn 0.524812 0.761002 0.381249
vn -0.112769 0.932216 0.343618
vn -0.200452 0.761002 0.616950
vn -0.309101 0.924068 0.224562
vn -0.524812 0.761002 0.381249
vn -0.372612 0.927913 0.000000
vn -0.648660 0.761002 0.000000
vn -0.309101 0.924068 -0.224562
vn -0.524812 0.761002 -0.381249
vn -0.112769 0.932216 -0.343618
vn -0.200452 0.761002 -0.616950
vn 0.112769 0.932216 -0.343618
vn 0.200452 0.761002 -0.616950
vn 0.309101 0.924068 -0.224562
vn 0.524812 0.761002 -0.381249
vn 0.372612 0.927913 0.000000
vn 0.648660 0.761002 0.000000
vn 0.252731 0.575291 0.777849
vn 0.661723 0.575291 0.480712
vn -0.252731 0.575291 0.777849
vn -0.661723 0.575291 0.480712
vn -0.817921 0.575291 0.000000
vn -0.661723 0.575291 -0.480712
vn -0.252731 0.575291 -0.777849
vn 0.252731 0.575291 -0.777849
vn 0.661723 0.575291 -0.480712
vn 0.817921 0.575291 0.000000
vn 0.279253 0.428127 0.859397
vn 0.731032 0.428127 0.531160
vn -0.279253 0.428127 0.859397
vn -0.731032 0.428127 0.531160
vn -0.903681 0.428127 0.000000
vn -0.731032 0.428127 -0.531160
vn -0.279253 0.428127 -0.859397
vn 0.279253 0.428127 -0.859397
vn 0.731032 0.428127 -0.531160
vn 0.903681 0.428127 0.000000
vn 0.292804 0.319447 0.901117
vn 0.766526 0.319447 0.556888
vn -0.292804 0.319447 0.901117
vn -0.766526 0.319447 0.556888
vn -0.947507 0.319447 0.000000
vn -0.766526 0.319447 -0.556888
vn -0.292804 0.319447 -0.901117
vn 0.292804 0.319447 -0.901117
vn 0.766526 0.319447 -0.556888
vn 0.947507 0.319447 0.000000
vn 0.300037 0.238174 0.923671
vn 0.785662 0.238174 0.570805
vn -0.300037 0.238174 0.923671
vn -0.785662 0.238174 0.570805
vn -0.971129 0.238174 0.000000
vn -0.785662 0.238174 -0.570805
vn -0.300037 0.238174 -0.923671
vn 0.300037 0.238174 -0.923671
vn 0.785662 0.238174 -0.570805
vn 0.971129 0.238174 0.000000
vn 0.304279 0.173839 0.936489
vn 0.796679 0.173839 0.578740
vn -0.304279 0.173839 0.936489
vn -0.796679 0.173839 0.578740
vn -0.984679 0.173839 0.000000
vn -0.796679 0.173839 -0.578740
vn -0.304279 0.173839 -0.936489
vn 0.304279 0.173839 -0.936489
vn 0.796679 0.173839 -0.578740
vn 0.984679 0.173839 0.000000
vn 0.306781 0.118171 0.944302
vn 0.803272 0.118171 0.583654
vn -0.306781 0.118171 0.944302
vn -0.803272 0.118171 0.583654
vn -0.992919 0.118171 0.000000
vn -0.803272 0.118171 -0.583654
vn -0.306781 0.118171 -0.944302
vn 0.306781 0.118171 -0.944302
vn 0.803272 0.118171 -0.583654
vn 0.992919 0.118171 0.000000
vn 0.308338 0.065891 0.948971
vn 0.807178 0.065891 0.586431
vn -0.308338 0.065891 0.948971
vn -0.807178 0.065891 0.586431
vn -0.997803 0.065891 0.000000
vn -0.807178 0.065891 -0.586431
vn -0.308338 0.065891 -0.948971
vn 0.308338 0.065891 -0.948971
vn 0.807178 0.065891 -0.586431
vn 0.997803 0.065891 0.000000
vn 0.308948 0.000000 0.951047
vn 0.808948 0.000000 0.587774
vn -0.308948 0.000000 0.951047
vn -0.808948 0.000000 0.587774
vn -1.000000 0.000000 0.000000
vn -0.808948 0.000000 -0.587774
vn -0.308948 0.000000 -0.951047
vn 0.308948 0.000000 -0.951047
vn 0.808948 0.000000 -0.587774
vn 1.000000 0.000000 0.000000
vn 0.306873 -0.115180 0.944699
vn 0.803546 -0.115180 0.583867
vn -0.306873 -0.115180 0.944699
vn -0.803546 -0.115180 0.583867
vn -0.993316 -0.115180 0.000000
vn -0.803546 -0.115180 -0.583867
vn -0.306873 -0.115180 -0.944699
vn 0.306873 -0.115180 -0.944699
vn 0.803546 -0.115180 -0.583867
vn 0.993316 -0.115180 0.000000
vn 0.294574 -0.301959 0.906549
vn 0.771226 -0.301959 0.560306
vn -0.294574 -0.301959 0.906549
vn -0.771226 -0.301959 0.560306
vn -0.953214 -0.301959 0.000000
vn -0.771226 -0.301959 -0.560306
vn -0.294574 -0.301959 -0.906549
vn 0.294574 -0.301959 -0.906549
vn 0.771226 -0.301959 -0.560306
vn 0.953214 -0.301959 0.000000
vn 0.247635 -0.597784 0.762284
vn 0.648447 -0.597784 0.471098
vn -0.247635 -0.597784 0.762284
vn -0.648447 -0.597784 0.471098
vn -0.801532 -0.597784 0.000000
vn -0.648447 -0.597784 -0.471098
vn -0.247635 -0.597784 -0.762284
vn 0.247635 -0.597784 -0.762284
vn 0.648447 -0.597784 -0.471098
vn 0.801532 -0.597784 0.000000
vn 0.173930 -0.826344 0.535433
vn 0.455442 -0.826344 0.330953
vn -0.173930 -0.826344 0.535433
vn -0.455442 -0.826344 0.330953
vn -0.562992 -0.826344 0.000000
vn -0.455442 -0.826344 -0.330953
vn -0.173930 -0.826344 -0.535433
vn 0.173930 -0.826344 -0.535433
vn 0.455442 -0.826344 -0.330953
vn 0.562992 -0.826344 0.000000
vn 0.062687 -0.979125 0.192883
vn 0.164073 -0.979125 0.119178
vn -0.062687 -0.979125 0.192883
vn -0.164073 -0.979125 0.119178
vn -0.202802 -0.979125 0.000000
vn -0.164073 -0.979125 -0.119178
vn -0.062687 -0.979125 -0.192883
vn 0.062687 -0.979125 -0.192883
vn 0.164073 -0.979125 -0.119178
vn 0.202802 -0.979125 0.000000
vn 0.042941 -0.990447 0.130471
vn 0.115394 -0.989745 0.083776
vn -0.042941 -0.990447 0.130471
vn -0.115394 -0.989745 0.083776
vn -0.137582 -0.990417 0.000000
vn -0.115394 -0.989745 -0.083776
vn -0.042941 -0.990447 -0.130471
vn 0.042941 -0.990447 -0.130471
vn 0.115394 -0.989745 -0.083776
vn 0.137582 -0.990417 0.000000
vn 0.078588 0.996826 0.000000
vn -0.078588 0.996826 0.000000
vn 0.078588 -0.996826 0.000000
vn -0.078588 -0.996826 0.000000
vn 0.671885 -0.125465 0.729872
vn -0.021272 -0.163371 0.986327
vn -0.034884 -0.315418 0.948300
vn 0.673442 -0.238754 0.699506
vn -0.698834 -0.020906 0.714887
vn -0.721846 -0.168406 0.671214
vn -0.974242 0.220198 0.047946
vn -0.992645 0.119056 0.018464
vn -0.662608 0.412867 -0.624794
vn -0.681102 0.375389 -0.628578
vn 0.045352 0.449002 -0.892358
vn 0.027010 0.453153 -0.890893
vn 0.734481 0.312489 -0.602240
vn 0.727065 0.308918 -0.613013
vn 0.994293 0.072911 0.076878
vn 0.998260 0.020173 0.053806
vn 0.050266 0.957364 0.284167
vn 0.997955 0.015443 0.061741
vn 0.673961 -0.319233 0.666087
vn 0.681713 -0.427730 0.593451
vn 0.997619 0.017427 0.066624
vn 0.729659 0.362144 -0.580022
vn 0.728407 0.472960 -0.495544
vn 0.017732 0.508637 -0.860740
vn 0.011475 0.658426 -0.752426
vn -0.698865 0.371727 -0.611030
vn -0.713361 0.452481 -0.534945
vn -0.999298 0.036471 0.007019
vn -0.999847 -0.007142 0.013886
vn -0.718885 -0.302448 0.625710
vn -0.704236 -0.440792 0.556461
vn -0.030977 -0.448605 0.893090
vn -0.016450 -0.611518 0.791003
vn 0.709272 -0.454190 0.538943
vn 0.998169 0.047549 0.035006
vn 0.705945 0.529604 -0.469999
vn 0.014802 0.720839 -0.692852
vn -0.691296 0.513520 -0.508210
vn -0.999847 0.014771 -0.008454
vn -0.712751 -0.480040 0.511384
vn -0.002075 -0.674327 0.738296
vn -0.945492 0.307209 0.107367
vn -0.803821 0.583990 0.112769
vn -0.808491 0.587408 -0.035738
vn -0.950497 0.308765 -0.033907
vn -0.306965 0.944973 0.112769
vn -0.308735 0.950436 -0.035738
vn 0.306965 0.944973 0.112769
vn 0.308735 0.950436 -0.035738
vn 0.803821 0.583990 0.112769
vn 0.808491 0.587408 -0.035738
vn 0.945492 0.307209 0.107367
vn 0.950497 0.308765 -0.033907
vn 0.000000 0.000000 1.000000
vn -0.944760 0.306903 -0.114723
vn -0.803028 0.583471 -0.120582
vn 0.000000 0.932827 -0.360282
vn -0.306690 0.944027 -0.120582
vn 0.306690 0.944027 -0.120582
vn 0.803028 0.583471 -0.120582
vn 0.944760 0.306903 -0.114723
vn 0.000000 -1.000000 0.000000
vn 0.000000 -1.000000 0.000000
vn 0.000000 -1.000000 0.000000
vn 0.000000 -1.000000 0.000000
vn 0.000000 -1.000000 0.000000
vn 0.000000 -1.000000 0.000000
vn 0.000000 -1.000000 0.000000
vn 0.000000 -1.000000 0.000000
vn 0.000000 -1.000000 0.000000
vn 0.000000 -1.000000 0.000000
vn 0.945492 0.307209 0.107367
vn 0.950497 0.308765 -0.033907
vn 0.808491 0.587408 -0.035738
vn 0.803821 0.583990 0.112769
vn 0.308735 0.950436 -0.035738
vn 0.306965 0.944973 0.112769
vn -0.308735 0.950436 -0.035738
vn -0.306965 0.944973 0.112769
vn -0.808491 0.587408 -0.035738
vn -0.803821 0.583990 0.112769
vn -0.950497 0.308765 -0.033907
vn -0.945492 0.307209 0.107367
vn 0.000000 0.000000 1.000000
vn 0.944760 0.306903 -0.114723
vn 0.000000 0.932827 -0.360282
vn 0.803028 0.583471 -0.120582
vn 0.306690 0.944027 -0.120582
vn -0.306690 0.944027 -0.120582
vn -0.803028 0.583471 -0.120582
vn -0.944760 0.306903 -0.114723
vn 0.000000 -1.000000 0.000000
vn 0.000000 -1.000000 0.000000
vn 0.000000 -1.000000 0.000000
vn 0.000000 -1.000000 0.000000
vn 0.000000 -1.000000 0.000000
vn 0.000000 -1.000000 0.000000
vn 0.000000 -1.000000 0.000000
vn 0.000000 -1.000000 0.000000
vn 0.000000 -1.000000 0.000000
vn 0.000000 -1.000000 0.000000
vn -0.692761 -0.368553 -0.619728
vn 0.468290 0.412196 -0.781389
vn 0.576695 0.285113 -0.765519
vn -0.600836 -0.418513 -0.681041
vn 0.762254 0.580205 -0.286517
vn 0.853049 0.441250 -0.278398
vn 0.762254 0.580205 0.286517
vn 0.853049 0.441250 0.278398
vn 0.468290 0.412196 0.781389
vn 0.576695 0.285113 0.765519
vn -0.692761 -0.368553 0.619728
vn -0.600836 -0.418513 0.681041
vn -0.899103 -0.437527 0.000000
vn -0.611671 -0.508545 0.605780
vn 0.650400 0.171184 0.740005
vn 0.885888 0.361320 0.290789
vn 0.885888 0.361320 -0.290789
vn 0.650400 0.171184 -0.740005
vn -0.611671 -0.508545 -0.605780
vn -0.812031 -0.583593 0.000000
vn -0.843771 -0.536562 0.000000
vn 0.999969 -0.001709 0.000397
vn 0.573521 0.604987 -0.552310
vn 0.787157 0.565708 0.245254
vn 0.919154 0.128243 0.372276
vn 0.953122 -0.157694 0.258103
vn 0.935604 -0.072392 -0.345327
vn 0.940396 -0.299701 0.160258
vn 0.964994 -0.260850 -0.022920
vn 0.338857 -0.317311 -0.885613
vn -0.999756 -0.021028 -0.002442
vn -0.880181 0.155252 0.448422
vn -0.785845 0.568364 0.243332
vn -0.655313 0.555912 -0.511384
vn -0.916712 -0.076604 0.391870
vn -0.998657 -0.047061 -0.017060
vn -0.956540 -0.182934 0.226973
vn -0.991546 -0.121742 -0.044406
vn -0.964384 -0.089269 -0.248978
vn -0.796466 0.106360 -0.595221
vn 0.692761 -0.368553 -0.619758
vn 0.600836 -0.418513 -0.681041
vn -0.576695 0.285113 -0.765519
vn -0.468290 0.412196 -0.781389
vn -0.853049 0.441250 -0.278398
vn -0.762254 0.580205 -0.286517
vn -0.853049 0.441250 0.278398
vn -0.762254 0.580205 0.286517
vn -0.576695 0.285113 0.765519
vn -0.468290 0.412196 0.781389
vn 0.600836 -0.418513 0.681041
vn 0.692761 -0.368553 0.619728
vn 0.899103 -0.437527 0.000000
vn -0.650400 0.171184 0.740005
vn 0.611671 -0.508545 0.605780
vn -0.885888 0.361320 0.290789
vn -0.885888 0.361320 -0.290789
vn -0.650400 0.171184 -0.740005
vn 0.611671 -0.508545 -0.605780
vn 0.812031 -0.583593 0.000000
vn 0.843771 -0.536562 0.000000
vn -0.999969 -0.001709 0.000397
vn -0.919154 0.128243 0.372276
vn -0.787157 0.565708 0.245254
vn -0.573521 0.604987 -0.552310
vn -0.953122 -0.157694 0.258103
vn -0.935604 -0.072392 -0.345327
vn -0.940396 -0.299701 0.160258
vn -0.964994 -0.260850 -0.022920
vn -0.338857 -0.317311 -0.885613
vn 0.999756 -0.021028 -0.002442
vn 0.655313 0.555912 -0.511384
vn 0.785845 0.568364 0.243332
vn 0.880181 0.155252 0.448422
vn 0.916712 -0.076604 0.391870
vn 0.998657 -0.047061 -0.017060
vn 0.956540 -0.182934 0.226973
vn 0.991546 -0.121742 -0.044406
vn 0.964384 -0.089269 -0.248978
vn 0.796466 0.106360 -0.595221
vn 0.000000 0.000000 -1.000000
vn 0.192669 0.034365 -0.980590
vn 0.191998 -0.059177 -0.979582
vn 0.000000 0.000000 -1.000000
vn 0.149087 -0.124947 -0.980803
vn 0.000000 0.000000 -1.000000
vn 0.149515 -0.322255 -0.934719
vn 0.002075 -0.301044 -0.953519
vn -0.169963 -0.271806 -0.947171
vn 0.000000 0.000000 -1.000000
vn 0.000000 0.000000 -1.000000
vn 0.000000 0.000000 -1.000000
vn -0.283465 -0.140084 -0.948666
vn 0.000000 0.000000 -1.000000
vn -0.479186 -0.010071 -0.877556
vn -0.327657 0.089086 -0.940548
vn -0.310749 0.206922 -0.927638
vn 0.000000 0.000000 -1.000000
vn -0.189953 0.312824 -0.930507
vn 0.000000 0.000000 -1.000000
vn -0.061253 0.354026 -0.933193
vn 0.000000 0.000000 -1.000000
vn 0.104956 0.307453 -0.945675
vn 0.141458 0.113746 -0.983306
vn 0.000000 0.000000 1.000000
vn 0.000000 0.000000 1.000000
vn 0.191998 -0.059177 0.979582
vn 0.192669 0.034365 0.980590
vn 0.000000 0.000000 1.000000
vn 0.149087 -0.124947 0.980803
vn 0.002075 -0.301044 0.953519
vn 0.149515 -0.322255 0.934719
vn 0.000000 0.000000 1.000000
vn -0.169963 -0.271806 0.947171
vn 0.000000 0.000000 1.000000
vn 0.000000 0.000000 1.000000
vn 0.000000 0.000000 1.000000
vn -0.283465 -0.140084 0.948666
vn -0.327657 0.089086 0.940548
vn -0.479186 -0.010071 0.877556
vn 0.000000 0.000000 1.000000
vn -0.310749 0.206922 0.927638
vn 0.000000 0.000000 1.000000
vn -0.189953 0.312824 0.930507
vn 0.000000 0.000000 1.000000
vn -0.061253 0.354026 0.933193
vn 0.141458 0.113746 0.983306
vn 0.104956 0.307453 0.945675
vn 0.000000 0.000000 -1.000000
vn 0.000000 0.000000 -1.000000
vn -0.191998 -0.059177 -0.979582
vn -0.192669 0.034365 -0.980590
vn 0.000000 0.000000 -1.000000
vn -0.149087 -0.124947 -0.980803
vn -0.002075 -0.301044 -0.953519
vn -0.149515 -0.322255 -0.934719
vn 0.000000 0.000000 -1.000000
vn 0.169963 -0.271806 -0.947171
vn 0.000000 0.000000 -1.000000
vn 0.000000 0.000000 -1.000000
vn 0.000000 0.000000 -1.000000
vn 0.283465 -0.140084 -0.948666
vn 0.327657 0.089086 -0.940548
vn 0.479186 -0.010071 -0.877556
vn 0.000000 0.000000 -1.000000
vn 0.310749 0.206922 -0.927638
vn 0.000000 0.000000 -1.000000
vn 0.189953 0.312824 -0.930507
vn 0.000000 0.000000 -1.000000
vn 0.061253 0.354026 -0.933193
vn -0.141458 0.113746 -0.983306
vn -0.104956 0.307453 -0.945675
vn 0.000000 0.000000 1.000000
vn -0.192669 0.034365 0.980590
vn -0.191998 -0.059177 0.979582
vn 0.000000 0.000000 1.000000
vn -0.149087 -0.124947 0.980803
vn 0.000000 0.000000 1.000000
vn -0.149515 -0.322255 0.934719
vn -0.002075 -0.301044 0.953519
vn 0.169963 -0.271806 0.947171
vn 0.000000 0.000000 1.000000
vn 0.000000 0.000000 1.000000
vn 0.000000 0.000000 1.000000
vn 0.283465 -0.140084 0.948666
vn 0.000000 0.000000 1.000000
vn 0.479186 -0.010071 0.877556
vn 0.327657 0.089086 0.940548
vn 0.310749 0.206922 0.927638
vn 0.000000 0.000000 1.000000
vn 0.189953 0.312824 0.930507
vn 0.000000 0.000000 1.000000
vn 0.061253 0.354026 0.933193
vn 0.000000 0.000000 1.000000
vn -0.104956 0.307453 0.945675
vn -0.141458 0.113746 0.983306
vn 0.563603 -0.350790 0.747787
vn 0.224623 -0.496155 0.838552
vn 0.169322 -0.756180 0.631966
vn 0.685802 -0.534731 0.493499
vn -0.114204 -0.350790 0.929409
vn -0.347189 -0.534731 0.770311
vn -0.254593 0.000000 0.966978
vn -0.561069 0.000000 0.827687
vn -0.114204 0.350790 0.929409
vn -0.347189 0.534731 0.770311
vn 0.224623 0.496155 0.838552
vn 0.169322 0.756180 0.631966
vn 0.563603 0.350790 0.747787
vn 0.685802 0.534731 0.493499
vn 0.703931 0.000000 0.710157
vn 0.899805 0.000000 0.436214
vn 0.090551 -0.936764 0.337881
vn 0.730391 -0.662333 0.166484
vn -0.549197 -0.662333 0.509400
vn -0.814289 0.000000 0.580358
vn -0.549197 0.662333 0.509400
vn 0.090551 0.936764 0.337881
vn 0.730391 0.662333 0.166484
vn 0.995422 0.000000 0.095434
vn 0.000000 -1.000000 0.000000
vn 0.682995 -0.707044 -0.182995
vn -0.682995 -0.707044 0.182995
vn -0.965910 0.000000 0.258774
vn -0.682995 0.707044 0.182995
vn 0.000000 1.000000 0.000000
vn 0.682995 0.707044 -0.182995
vn 0.965910 0.000000 -0.258774
vn -0.090551 -0.936764 -0.337881
vn 0.549197 -0.662333 -0.509400
vn -0.730391 -0.662333 -0.166484
vn -0.995422 0.000000 -0.095434
vn -0.730391 0.662333 -0.166484
vn -0.090551 0.936764 -0.337881
vn 0.549197 0.662333 -0.509400
vn 0.814289 0.000000 -0.580358
vn -0.169322 -0.756180 -0.631966
vn 0.347189 -0.534731 -0.770311
vn -0.685802 -0.534731 -0.493499
vn -0.899805 0.000000 -0.436214
vn -0.685802 0.534731 -0.493499
vn -0.169322 0.756180 -0.631966
vn 0.347189 0.534731 -0.770311
vn 0.561069 0.000000 -0.827687
vn -0.224623 -0.496155 -0.838552
vn 0.114204 -0.350790 -0.929409
vn -0.563603 -0.350790 -0.747787
vn -0.703931 0.000000 -0.710157
vn -0.563603 0.350790 -0.747787
vn -0.224623 0.496155 -0.838552
vn 0.114204 0.350790 -0.929409
vn 0.254593 0.000000 -0.966978
vn 0.258774 0.000000 0.965910
vn -0.258774 0.000000 -0.965910
vn -0.563603 -0.350790 0.747787
vn -0.685802 -0.534731 0.493499
vn -0.169322 -0.756180 0.631966
vn -0.224623 -0.496155 0.838522
vn 0.347189 -0.534731 0.770311
vn 0.114204 -0.350790 0.929409
vn 0.561069 0.000000 0.827687
vn 0.254593 0.000000 0.966978
vn 0.347189 0.534731 0.770311
vn 0.114204 0.350790 0.929409
vn -0.169322 0.756180 0.631966
vn -0.224623 0.496155 0.838552
vn -0.685802 0.534731 0.493499
vn -0.563603 0.350790 0.747787
vn -0.899805 0.000000 0.436214
vn -0.703931 0.000000 0.710157
vn -0.730391 -0.662333 0.166484
vn -0.090551 -0.936764 0.337881
vn 0.549197 -0.662333 0.509400
vn 0.814289 0.000000 0.580358
vn 0.549197 0.662333 0.509400
vn -0.090551 0.936764 0.337881
vn -0.730391 0.662333 0.166484
vn -0.995422 0.000000 0.095434
vn -0.682995 -0.707044 -0.182995
vn 0.000000 -1.000000 0.000000
vn 0.682995 -0.707044 0.182995
vn 0.965910 0.000000 0.258774
vn 0.682995 0.707044 0.182995
vn 0.000000 1.000000 0.000000
vn -0.682995 0.707044 -0.182995
vn -0.965910 0.000000 -0.258774
vn -0.549197 -0.662333 -0.509400
vn 0.090551 -0.936764 -0.337881
vn 0.730391 -0.662333 -0.166484
vn 0.995422 0.000000 -0.095434
vn 0.730391 0.662333 -0.166484
vn 0.090551 0.936764 -0.337881
vn -0.549197 0.662333 -0.509400
vn -0.814289 0.000000 -0.580358
vn -0.347189 -0.534731 -0.770311
vn 0.169322 -0.756180 -0.631966
vn 0.685802 -0.534731 -0.493499
vn 0.899805 0.000000 -0.436214
vn 0.685802 0.534731 -0.493499
vn 0.169322 0.756180 -0.631966
vn -0.347189 0.534731 -0.770311
vn -0.561069 0.000000 -0.827687
vn -0.114204 -0.350790 -0.929409
vn 0.224623 -0.496155 -0.838552
vn 0.563603 -0.350790 -0.747787
vn 0.703931 0.000000 -0.710157
vn 0.563603 0.350790 -0.747787
vn 0.224623 0.496155 -0.838552
vn -0.114204 0.350790 -0.929409
vn -0.254593 0.000000 -0.966978
vn -0.258774 0.000000 0.965910
vn 0.258774 0.000000 -0.965910
# 862 uv coords
vt 0.365198 0.941932
vt 0.324469 0.941119
vt 0.282542 0.940643
vt 0.240616 0.940042
vt 0.199881 0.939809
vt 0.161504 0.941806
vt 0.127621 0.950511
vt 0.437161 0.954484
vt 0.403512 0.944912
vt 0.373556 0.911655
vt 0.328261 0.910834
vt 0.282930 0.910379
vt 0.237602 0.909669
vt 0.192302 0.909327
vt 0.147158 0.911793
vt 0.103621 0.922608
vt 0.461870 0.927205
vt 0.418623 0.915277
vt 0.382465 0.874052
vt 0.332540 0.873175
vt 0.283415 0.872651
vt 0.234292 0.871912
vt 0.184360 0.871507
vt 0.133017 0.873565
vt 0.080657 0.882647
vt 0.485850 0.887844
vt 0.433738 0.877425
vt 0.388258 0.831962
vt 0.335503 0.831335
vt 0.283953 0.830774
vt 0.232404 0.830010
vt 0.179650 0.829282
vt 0.124680 0.829520
vt 0.066987 0.832620
vt 0.500797 0.838186
vt 0.443204 0.833608
vt 0.388938 0.789120
vt 0.336110 0.788975
vt 0.284496 0.788437
vt 0.232884 0.787649
vt 0.180069 0.786437
vt 0.125078 0.784184
vt 0.067440 0.779543
vt 0.501706 0.785116
vt 0.443968 0.788277
vt 0.384459 0.747016
vt 0.334321 0.747250
vt 0.285030 0.746742
vt 0.235743 0.745984
vt 0.185626 0.744463
vt 0.134175 0.740289
vt 0.081909 0.729552
vt 0.488525 0.734771
vt 0.435999 0.744162
vt 0.376156 0.707024
vt 0.330806 0.707308
vt 0.285543 0.706806
vt 0.240280 0.706147
vt 0.194953 0.704699
vt 0.149792 0.700100
vt 0.106507 0.687440
vt 0.465015 0.692040
vt 0.421419 0.703585
vt 0.366861 0.670028
vt 0.327020 0.670185
vt 0.286018 0.669728
vt 0.245017 0.669134
vt 0.205194 0.667954
vt 0.167755 0.664437
vt 0.134906 0.654561
vt 0.437470 0.658443
vt 0.404379 0.667474
vt 0.519316 0.977444
vt 0.513517 0.969460
vt 0.867863 0.899807
vt 0.857720 0.899808
vt 0.136955 0.404033
vt 0.312187 0.468345
vt 0.299288 0.449813
vt 0.280584 0.434111
vt 0.258381 0.420960
vt 0.234038 0.410396
vt 0.208639 0.402706
vt 0.183202 0.398373
vt 0.158780 0.398246
vt 0.122025 0.384782
vt 0.336026 0.463322
vt 0.319606 0.438259
vt 0.296827 0.417906
vt 0.270439 0.401660
vt 0.241861 0.389079
vt 0.211930 0.380188
vt 0.181297 0.375507
vt 0.150760 0.376292
vt 0.105548 0.358762
vt 0.365424 0.454139
vt 0.344191 0.423142
vt 0.316613 0.397978
vt 0.285232 0.378115
vt 0.251420 0.363036
vt 0.215879 0.352664
vt 0.179101 0.347511
vt 0.141792 0.348861
vt 0.089937 0.325014
vt 0.399160 0.438501
vt 0.371823 0.402888
vt 0.338828 0.373525
vt 0.302058 0.350170
vt 0.262627 0.332497
vt 0.221126 0.320468
vt 0.177978 0.314493
vt 0.133822 0.315541
vt 0.077487 0.284287
vt 0.435001 0.415496
vt 0.400844 0.376982
vt 0.362201 0.344480
vt 0.320100 0.318187
vt 0.275238 0.298140
vt 0.228058 0.284408
vt 0.178943 0.277223
vt 0.128449 0.277013
vt 0.069890 0.238783
vt 0.470231 0.385709
vt 0.429335 0.346064
vt 0.385370 0.311607
vt 0.338463 0.283132
vt 0.288824 0.261123
vt 0.236732 0.245796
vt 0.182541 0.237169
vt 0.126724 0.235006
vt 0.067898 0.191684
vt 0.502220 0.351081
vt 0.455447 0.311826
vt 0.407049 0.276468
vt 0.356247 0.246564
vt 0.302785 0.223086
vt 0.246826 0.206408
vt 0.188741 0.196349
vt 0.128959 0.192006
vt 0.071227 0.146496
vt 0.528915 0.314467
vt 0.477794 0.276653
vt 0.426265 0.241153
vt 0.372661 0.210453
vt 0.316406 0.185974
vt 0.257670 0.168253
vt 0.196933 0.156989
vt 0.134672 0.150730
vt 0.078266 0.109428
vt 0.547528 0.281646
vt 0.494078 0.245788
vt 0.440951 0.210696
vt 0.385763 0.179781
vt 0.327852 0.154787
vt 0.267521 0.136388
vt 0.205437 0.124264
vt 0.142222 0.116660
vt 0.086602 0.083713
vt 0.557806 0.256644
vt 0.503776 0.222717
vt 0.450243 0.188405
vt 0.394494 0.157770
vt 0.335958 0.132702
vt 0.275102 0.113956
vt 0.212771 0.101256
vt 0.149751 0.092793
vt 0.095109 0.065898
vt 0.562843 0.237556
vt 0.509371 0.205403
vt 0.456075 0.172106
vt 0.400301 0.142025
vt 0.341679 0.117115
vt 0.280859 0.098194
vt 0.218868 0.085055
vt 0.156685 0.075971
vt 0.103207 0.052147
vt 0.565564 0.221830
vt 0.513368 0.191411
vt 0.460576 0.159180
vt 0.404862 0.129642
vt 0.346171 0.104875
vt 0.285392 0.085799
vt 0.223797 0.072286
vt 0.162688 0.062716
vt 0.603868 0.106969
vt 0.579619 0.124654
vt 0.549611 0.124654
vt 0.525362 0.106968
vt 0.516099 0.078413
vt 0.525362 0.049857
vt 0.549610 0.032170
vt 0.579619 0.032171
vt 0.603868 0.049858
vt 0.613130 0.078414
vt 0.577998 0.088205
vt 0.569745 0.094328
vt 0.559485 0.094328
vt 0.551232 0.088205
vt 0.548010 0.078412
vt 0.551232 0.068619
vt 0.559484 0.062496
vt 0.569745 0.062496
vt 0.577997 0.068619
vt 0.581220 0.078413
vt 0.918765 0.021898
vt 0.928907 0.021898
vt 0.569601 0.078412
vt 0.559629 0.078412
vt 0.863414 0.987890
vt 0.681863 0.363943
vt 0.680348 0.361163
vt 0.678690 0.358473
vt 0.866437 0.982561
vt 0.864696 0.985098
vt 0.772036 0.953380
vt 0.777097 0.945152
vt 0.782759 0.937319
vt 0.762563 0.313160
vt 0.767985 0.321091
vt 0.773318 0.329049
vt 0.827922 0.977631
vt 0.831144 0.971255
vt 0.835058 0.965280
vt 0.710065 0.341177
vt 0.713790 0.347224
vt 0.717270 0.353427
vt 0.709354 0.916256
vt 0.715550 0.907039
vt 0.722305 0.898161
vt 0.823062 0.273695
vt 0.829598 0.282760
vt 0.836150 0.291775
vt 0.704026 0.090224
vt 0.690826 0.091401
vt 0.677589 0.091401
vt 0.664389 0.090222
vt 0.656389 0.196971
vt 0.674938 0.197838
vt 0.693470 0.197838
vt 0.712019 0.196972
vt 0.036155 0.438419
vt 0.036152 0.545254
vt 0.923122 0.776269
vt 0.936322 0.777448
vt 0.949558 0.777449
vt 0.962759 0.776271
vt 0.970752 0.883020
vt 0.952203 0.883885
vt 0.933670 0.883884
vt 0.915121 0.883018
vt 0.960567 0.196416
vt 0.960567 0.089581
vt 0.080972 0.459746
vt 0.085182 0.464516
vt 0.085182 0.469778
vt 0.080972 0.474548
vt 0.150940 0.483077
vt 0.151538 0.472629
vt 0.151538 0.461665
vt 0.150940 0.451217
vt 0.335421 0.024502
vt 0.262696 0.544394
vt 0.276997 0.549242
vt 0.253628 0.520620
vt 0.234986 0.520184
vt 0.235726 0.507662
vt 0.243545 0.495086
vt 0.269372 0.480681
vt 0.284754 0.494090
vt 0.273065 0.521297
vt 0.283575 0.508556
vt 0.247981 0.532951
vt 0.879050 0.846376
vt 0.874840 0.851145
vt 0.874840 0.856408
vt 0.879050 0.861177
vt 0.809081 0.869705
vt 0.808484 0.859257
vt 0.808484 0.848293
vt 0.809081 0.837845
vt 0.155269 0.588456
vt 0.850277 0.799415
vt 0.835186 0.799954
vt 0.865785 0.779241
vt 0.883767 0.784174
vt 0.886652 0.771964
vt 0.882770 0.757674
vt 0.862160 0.736466
vt 0.843578 0.744896
vt 0.846970 0.774314
vt 0.840557 0.759094
vt 0.867657 0.792674
vt 0.929713 0.381324
vt 0.850205 0.353968
vt 0.902809 0.335401
vt 0.869412 0.397818
vt 0.935082 0.435977
vt 0.823236 0.394253
vt 0.865175 0.472552
vt 0.842918 0.441801
vt 0.887755 0.430616
vt 0.912668 0.484819
vt 0.548804 0.510014
vt 0.523740 0.459074
vt 0.574369 0.467184
vt 0.603874 0.481514
vt 0.630801 0.515309
vt 0.642288 0.563100
vt 0.606204 0.570469
vt 0.601300 0.515293
vt 0.558823 0.571423
vt 0.497342 0.527811
vt 0.618540 0.608204
vt 0.580897 0.611491
vt 0.591843 0.625842
vt 0.559174 0.637726
vt 0.514150 0.638967
vt 0.478550 0.624790
vt 0.492891 0.606177
vt 0.529798 0.613537
vt 0.521654 0.568424
vt 0.442030 0.589309
vt 0.430089 0.551749
vt 0.435534 0.520426
vt 0.462545 0.568173
vt 0.464612 0.481720
vt 0.799934 0.084716
vt 0.879508 0.057552
vt 0.826949 0.038858
vt 0.860194 0.101355
vt 0.794436 0.139358
vt 0.906379 0.097901
vt 0.864253 0.176099
vt 0.886584 0.145402
vt 0.841774 0.134110
vt 0.816728 0.188254
vt 0.655745 0.680560
vt 0.665924 0.624707
vt 0.619443 0.646352
vt 0.594983 0.668204
vt 0.578323 0.708076
vt 0.580341 0.757186
vt 0.617064 0.754407
vt 0.606694 0.699991
vt 0.662899 0.742369
vt 0.710111 0.683607
vt 0.615517 0.794077
vt 0.652623 0.786945
vt 0.646019 0.803742
vt 0.680692 0.806238
vt 0.724340 0.795122
vt 0.754705 0.771752
vt 0.735821 0.757770
vt 0.702334 0.774941
vt 0.697831 0.729321
vt 0.780129 0.727636
vt 0.781342 0.688244
vt 0.767541 0.659603
vt 0.754617 0.712917
vt 0.728990 0.630322
vt 0.573585 0.962253
vt 0.558643 0.960585
vt 0.649141 0.976085
vt 0.634495 0.972683
vt 0.619317 0.970291
vt 0.603983 0.967802
vt 0.588694 0.965048
vt 0.573566 0.952400
vt 0.556565 0.950151
vt 0.654575 0.966937
vt 0.637795 0.963399
vt 0.621549 0.960770
vt 0.605639 0.958144
vt 0.589760 0.955328
vt 0.574494 0.942918
vt 0.556838 0.939896
vt 0.657733 0.957178
vt 0.640078 0.954149
vt 0.623437 0.951295
vt 0.607287 0.948528
vt 0.591135 0.945764
vt 0.576777 0.933666
vt 0.559995 0.930135
vt 0.658007 0.946924
vt 0.641008 0.944666
vt 0.624814 0.941732
vt 0.608936 0.938913
vt 0.593024 0.936289
vt 0.580076 0.924381
vt 0.565429 0.920985
vt 0.655932 0.936489
vt 0.640989 0.934814
vt 0.625881 0.932013
vt 0.610591 0.929257
vt 0.595254 0.926769
vt 0.835962 0.931892
vt 0.016194 0.937705
vt 0.954928 0.569779
vt 0.969875 0.568157
vt 0.879341 0.583396
vt 0.893995 0.580035
vt 0.909178 0.577684
vt 0.924518 0.575239
vt 0.939813 0.572528
vt 0.954977 0.559926
vt 0.971984 0.557729
vt 0.873931 0.574234
vt 0.890720 0.570741
vt 0.906973 0.568157
vt 0.922891 0.565576
vt 0.938776 0.562804
vt 0.954078 0.550440
vt 0.971743 0.547474
vt 0.870800 0.564466
vt 0.888463 0.561485
vt 0.905111 0.558676
vt 0.921269 0.555955
vt 0.937428 0.553236
vt 0.951823 0.541182
vt 0.968616 0.537703
vt 0.870554 0.554211
vt 0.887560 0.552000
vt 0.903762 0.549109
vt 0.919649 0.546335
vt 0.935568 0.543756
vt 0.948553 0.531887
vt 0.963212 0.528537
vt 0.872658 0.543782
vt 0.887605 0.542147
vt 0.902722 0.539388
vt 0.918021 0.536674
vt 0.933365 0.534229
vt 0.905730 0.193519
vt 0.016194 0.016194
vt 0.825971 0.466792
vt 0.808339 0.425122
vt 0.809760 0.358591
vt 0.841344 0.317460
vt 0.958085 0.339530
vt 0.986925 0.382573
vt 0.890424 0.308140
vt 0.853885 0.493520
vt 0.805233 0.390528
vt 0.991120 0.446678
vt 0.932910 0.318108
vt 0.967742 0.490098
vt 0.901546 0.512690
vt 0.941256 0.508661
vt 0.921200 0.128807
vt 0.903470 0.170433
vt 0.919944 0.062272
vt 0.924392 0.094221
vt 0.875492 0.197095
vt 0.888456 0.021065
vt 0.827782 0.216152
vt 0.839399 0.011628
vt 0.788081 0.212025
vt 0.761640 0.193396
vt 0.742721 0.085829
vt 0.771663 0.042855
vt 0.796890 0.021494
vt 0.738372 0.149919
vt 0.650314 0.564102
vt 0.624997 0.613790
vt 0.560782 0.646449
vt 0.512590 0.647550
vt 0.595985 0.633872
vt 0.638633 0.511574
vt 0.473747 0.632113
vt 0.522793 0.450581
vt 0.577114 0.458654
vt 0.609359 0.474810
vt 0.434710 0.593760
vt 0.427576 0.517054
vt 0.459509 0.474942
vt 0.421512 0.552359
vt 0.732045 0.622407
vt 0.774274 0.654183
vt 0.788387 0.729916
vt 0.761328 0.777483
vt 0.664513 0.616279
vt 0.789759 0.686485
vt 0.728188 0.802952
vt 0.614471 0.638898
vt 0.572895 0.760344
vt 0.569768 0.706625
vt 0.681530 0.815068
vt 0.610833 0.801216
vt 0.587873 0.663256
vt 0.644231 0.812599
vt 0.929097 0.037983
vt 0.918577 0.037983
vt 0.910208 0.031806
vt 0.906976 0.021898
vt 0.918577 0.005814
vt 0.929097 0.005814
vt 0.940696 0.021898
vt 0.937464 0.031806
vt 0.910208 0.011991
vt 0.937464 0.011991
vt 0.541033 0.151011
vt 0.502918 0.123251
vt 0.488372 0.078413
vt 0.588196 0.151012
vt 0.502918 0.033574
vt 0.626311 0.123253
vt 0.541033 0.005814
vt 0.640857 0.078414
vt 0.588196 0.005814
vt 0.626311 0.033575
vt 0.604553 0.313435
vt 0.581469 0.351978
vt 0.548194 0.392857
vt 0.616951 0.282325
vt 0.508055 0.429782
vt 0.621789 0.258015
vt 0.463744 0.459545
vt 0.525253 0.167180
vt 0.574243 0.195178
vt 0.622239 0.238627
vt 0.418757 0.479961
vt 0.472496 0.135569
vt 0.622057 0.208996
vt 0.376931 0.490450
vt 0.415551 0.105729
vt 0.341701 0.492362
vt 0.355169 0.080358
vt 0.293917 0.472869
vt 0.284220 0.460389
vt 0.315047 0.488865
vt 0.006883 0.141103
vt 0.014215 0.096778
vt 0.292709 0.060648
vt 0.268820 0.448005
vt 0.295956 0.484331
vt 0.005814 0.193800
vt 0.024887 0.065033
vt 0.229981 0.046570
vt 0.249487 0.436741
vt 0.012536 0.247924
vt 0.036925 0.043366
vt 0.169299 0.036549
vt 0.227806 0.427377
vt 0.027074 0.299285
vt 0.049123 0.028291
vt 0.113830 0.026208
vt 0.205214 0.420494
vt 0.048173 0.343954
vt 0.068431 0.005814
vt 0.183183 0.416577
vt 0.073282 0.379008
vt 0.163428 0.416058
vt 0.098912 0.403255
vt 0.147959 0.419302
vt 0.121499 0.417830
vt 0.138990 0.426723
vt 0.341027 0.043005
vt 0.270748 0.043191
vt 0.258721 0.024503
vt 0.270748 0.005814
vt 0.341028 0.005999
vt 0.411318 0.034000
vt 0.412202 0.024505
vt 0.411319 0.015010
vt 0.857559 0.952964
vt 0.857559 0.941832
vt 0.863431 0.932374
vt 0.863431 0.962423
vt 0.873353 0.927325
vt 0.882880 0.947398
vt 0.873353 0.967472
vt 0.221145 0.450143
vt 0.221649 0.461456
vt 0.221649 0.472836
vt 0.220645 0.438953
vt 0.149980 0.441619
vt 0.221145 0.484149
vt 0.075581 0.467147
vt 0.079657 0.457397
vt 0.220645 0.495339
vt 0.149980 0.492675
vt 0.079657 0.476896
vt 0.292939 0.531304
vt 0.304962 0.538599
vt 0.277453 0.569408
vt 0.261165 0.567034
vt 0.277906 0.527877
vt 0.305407 0.558783
vt 0.248964 0.560203
vt 0.247617 0.539984
vt 0.227595 0.523793
vt 0.285134 0.509231
vt 0.226744 0.505344
vt 0.285640 0.493779
vt 0.238105 0.488420
vt 0.269424 0.479651
vt 0.506381 0.959635
vt 0.516429 0.956395
vt 0.526485 0.959464
vt 0.532833 0.968203
vt 0.500000 0.978701
vt 0.500192 0.968190
vt 0.532640 0.978715
vt 0.526452 0.987269
vt 0.506348 0.987441
vt 0.516403 0.990509
vt 0.868054 0.915892
vt 0.857533 0.915894
vt 0.849163 0.909717
vt 0.845930 0.899810
vt 0.857528 0.883723
vt 0.868049 0.883721
vt 0.879653 0.899805
vt 0.876423 0.909713
vt 0.849160 0.889902
vt 0.876419 0.889898
vt 0.030621 0.707045
vt 0.070175 0.660626
vt 0.112860 0.633568
vt 0.006371 0.770455
vt 0.149161 0.619186
vt 0.159471 0.627210
vt 0.005814 0.840748
vt 0.181114 0.631842
vt 0.029234 0.904493
vt 0.211564 0.634296
vt 0.067261 0.949056
vt 0.247696 0.635472
vt 0.105160 0.971394
vt 0.286449 0.636105
vt 0.139665 0.984787
vt 0.150293 0.976881
vt 0.325206 0.636465
vt 0.172876 0.972889
vt 0.361358 0.636218
vt 0.204614 0.971480
vt 0.391860 0.634546
vt 0.502024 0.666168
vt 0.540374 0.713586
vt 0.242084 0.971500
vt 0.413615 0.630471
vt 0.460049 0.638022
vt 0.562987 0.777597
vt 0.282140 0.971977
vt 0.424129 0.622714
vt 0.561743 0.847880
vt 0.322194 0.972528
vt 0.536696 0.911004
vt 0.359653 0.973471
vt 0.497539 0.954575
vt 0.391346 0.975693
vt 0.459080 0.975936
vt 0.413821 0.980263
vt 0.424243 0.988440
vt 0.026574 0.937705
vt 0.023535 0.945045
vt 0.016195 0.948086
vt 0.023535 0.930365
vt 0.008854 0.945046
vt 0.016194 0.927325
vt 0.005814 0.937705
vt 0.008854 0.930365
vt 0.016195 0.005814
vt 0.023535 0.008854
vt 0.026574 0.016194
vt 0.008854 0.008854
vt 0.023535 0.023534
vt 0.005814 0.016193
vt 0.016194 0.026574
vt 0.008854 0.023534
vt 0.905730 0.183139
vt 0.913069 0.186179
vt 0.916110 0.193518
vt 0.898390 0.186179
vt 0.913070 0.200859
vt 0.895349 0.193519
vt 0.905731 0.203900
vt 0.898390 0.200860
vt 0.825582 0.931892
vt 0.828621 0.924552
vt 0.835962 0.921512
vt 0.828622 0.939233
vt 0.843302 0.924551
vt 0.835963 0.942272
vt 0.846342 0.931891
vt 0.843302 0.939232
vt 0.671103 0.974213
vt 0.661267 0.983961
vt 0.651229 0.990094
vt 0.643549 0.985024
vt 0.676779 0.960445
vt 0.631537 0.982205
vt 0.676015 0.945572
vt 0.617339 0.979888
vt 0.669990 0.933104
vt 0.602334 0.977430
vt 0.653639 0.926197
vt 0.662569 0.923977
vt 0.587366 0.974756
vt 0.641373 0.924851
vt 0.573205 0.972215
vt 0.627211 0.922307
vt 0.560939 0.970876
vt 0.544585 0.963974
vt 0.538558 0.951507
vt 0.612240 0.919630
vt 0.552010 0.973099
vt 0.537791 0.936633
vt 0.597231 0.917173
vt 0.543466 0.922863
vt 0.583031 0.914859
vt 0.553300 0.913111
vt 0.571019 0.912044
vt 0.563338 0.906976
vt 0.896926 0.589565
vt 0.884908 0.592351
vt 0.877215 0.597400
vt 0.867193 0.591240
vt 0.911128 0.587287
vt 0.857383 0.581464
vt 0.926139 0.584872
vt 0.851744 0.567680
vt 0.941113 0.582240
vt 0.852550 0.552809
vt 0.955279 0.579743
vt 0.858609 0.540357
vt 0.874980 0.533495
vt 0.887248 0.532184
vt 0.967546 0.578441
vt 0.866055 0.531251
vt 0.901419 0.529677
vt 0.983921 0.571590
vt 0.976469 0.580692
vt 0.916399 0.527042
vt 0.989987 0.559142
vt 0.931417 0.524628
vt 0.990800 0.544271
vt 0.945627 0.522357
vt 0.985168 0.530482
vt 0.957650 0.519578
vt 0.975365 0.520701
vt 0.965347 0.514535
vt 0.811450 0.781736
vt 0.825061 0.778199
vt 0.805233 0.800942
vt 0.828961 0.819141
vt 0.840444 0.779227
vt 0.845247 0.821542
vt 0.865988 0.799516
vt 0.858894 0.818499
vt 0.838870 0.759292
vt 0.889812 0.789750
vt 0.842819 0.744345
vt 0.895920 0.772321
vt 0.862406 0.735465
vt 0.889894 0.752849
vt 0.231969 0.588456
vt 0.219942 0.607144
vt 0.149662 0.606959
vt 0.079371 0.597950
vt 0.078488 0.588456
vt 0.149662 0.569953
vt 0.219942 0.569768
vt 0.079371 0.578962
vt 0.449740 0.031452
vt 0.443869 0.040911
vt 0.433946 0.045960
vt 0.424419 0.025887
vt 0.449739 0.020319
vt 0.443867 0.010862
vt 0.433945 0.005814
vt 0.738372 0.859464
vt 0.738372 0.848084
vt 0.738877 0.836772
vt 0.738877 0.870776
vt 0.739376 0.825582
vt 0.810041 0.828247
vt 0.810041 0.879303
vt 0.739376 0.881967
vt 0.880365 0.844027
vt 0.884440 0.853777
vt 0.880365 0.863526
vt 0.706339 0.335085
vt 0.757489 0.304977
vt 0.677095 0.355785
vt 0.816534 0.264646
vt 0.893252 0.210796
vt 0.901632 0.221235
vt 0.778205 0.337296
vt 0.720005 0.360010
vt 0.662790 0.364990
vt 0.682702 0.366937
vt 0.884601 0.200582
vt 0.909992 0.231747
vt 0.842747 0.300736
vt 0.918424 0.242197
vt 0.767880 0.962083
vt 0.703576 0.925743
vt 0.635778 0.856388
vt 0.643875 0.845695
vt 0.825700 0.984444
vt 0.627907 0.867260
vt 0.652400 0.835392
vt 0.729502 0.889641
vt 0.788456 0.929536
vt 0.862973 0.990914
vt 0.839188 0.959417
vt 0.661496 0.825582
vt 0.883012 0.988922
vt 0.868313 0.980104
vt 0.990902 0.196416
vt 0.990905 0.303250
vt 0.960568 0.303251
vt 0.930232 0.303250
vt 0.930233 0.196416
vt 0.982585 0.089582
vt 0.938549 0.089581
vt 0.960572 0.005814
vt 0.066486 0.545254
vt 0.066486 0.652089
vt 0.036150 0.652089
vt 0.005814 0.652088
vt 0.005818 0.545254
vt 0.058172 0.438420
vt 0.014139 0.438419
vt 0.036157 0.354651
vt 0.726720 0.023647
vt 0.720930 0.005814
vt 0.751264 0.005821
vt 0.741888 0.034670
vt 0.760638 0.034671
vt 0.775807 0.023649
vt 0.781599 0.005818
vt 0.693822 0.304380
vt 0.674604 0.304380
vt 0.655498 0.303772
vt 0.712928 0.303772
vt 0.636628 0.303246
vt 0.637769 0.195707
vt 0.731799 0.303243
vt 0.730640 0.195707
vt 0.651263 0.087649
vt 0.717153 0.087652
vt 0.684216 0.005814
vt 0.026770 0.991067
vt 0.011603 0.980043
vt 0.005814 0.962209
vt 0.036148 0.962218
vt 0.045521 0.991069
vt 0.060691 0.980047
vt 0.066482 0.962214
vt 0.952543 0.990427
vt 0.933325 0.990427
vt 0.914219 0.989819
vt 0.971648 0.989821
vt 0.895349 0.989291
vt 0.896500 0.881753
vt 0.989372 0.881756
vt 0.990518 0.989294
vt 0.909996 0.773696
vt 0.975886 0.773700
vt 0.942948 0.691860
# 656 polygons
usemtl initialShadingGroup
s 1
g FriendlyMouse_LP
f 2/647/1 12/2/2 11/1/3 1/649/4
f 3/644/5 13/3/6 12/2/2 2/647/1
f 4/640/7 14/4/8 13/3/6 3/644/5
f 5/636/9 15/5/10 14/4/8 4/640/7
f 6/634/11 16/6/12 15/5/10 5/636/9
f 7/632/13 17/7/14 16/6/12 6/634/11
f 8/631/15 18/629/16 17/7/14 7/632/13
f 9/653/17 19/8/18 18/652/16 8/654/15
f 10/651/19 20/9/20 19/8/18 9/653/17
f 1/649/4 11/1/3 20/9/20 10/651/19
f 12/2/2 22/11/21 21/10/22 11/1/3
f 13/3/6 23/12/23 22/11/21 12/2/2
f 14/4/8 24/13/24 23/12/23 13/3/6
f 15/5/10 25/14/25 24/13/24 14/4/8
f 16/6/12 26/15/26 25/14/25 15/5/10
f 17/7/14 27/16/27 26/15/26 16/6/12
f 18/629/16 28/627/28 27/16/27 17/7/14
f 19/8/18 29/17/29 28/650/28 18/652/16
f 20/9/20 30/18/30 29/17/29 19/8/18
f 11/1/3 21/10/22 30/18/30 20/9/20
f 22/11/21 32/20/31 31/19/32 21/10/22
f 23/12/23 33/21/33 32/20/31 22/11/21
f 24/13/24 34/22/34 33/21/33 23/12/23
f 25/14/25 35/23/35 34/22/34 24/13/24
f 26/15/26 36/24/36 35/23/35 25/14/25
f 27/16/27 37/25/37 36/24/36 26/15/26
f 28/627/28 38/625/38 37/25/37 27/16/27
f 29/17/29 39/26/39 38/648/38 28/650/28
f 30/18/30 40/27/40 39/26/39 29/17/29
f 21/10/22 31/19/32 40/27/40 30/18/30
f 32/20/31 42/29/41 41/28/42 31/19/32
f 33/21/33 43/30/43 42/29/41 32/20/31
f 34/22/34 44/31/44 43/30/43 33/21/33
f 35/23/35 45/32/45 44/31/44 34/22/34
f 36/24/36 46/33/46 45/32/45 35/23/35
f 37/25/37 47/34/47 46/33/46 36/24/36
f 38/625/38 48/623/48 47/34/47 37/25/37
f 39/26/39 49/35/49 48/646/48 38/648/38
f 40/27/40 50/36/50 49/35/49 39/26/39
f 31/19/32 41/28/42 50/36/50 40/27/40
f 42/29/41 52/38/51 51/37/52 41/28/42
f 43/30/43 53/39/53 52/38/51 42/29/41
f 44/31/44 54/40/54 53/39/53 43/30/43
f 45/32/45 55/41/55 54/40/54 44/31/44
f 46/33/46 56/42/56 55/41/55 45/32/45
f 47/34/47 57/43/57 56/42/56 46/33/46
f 48/623/48 58/620/58 57/43/57 47/34/47
f 49/35/49 59/44/59 58/643/58 48/646/48
f 50/36/50 60/45/60 59/44/59 49/35/49
f 41/28/42 51/37/52 60/45/60 50/36/50
f 52/38/51 62/47/61 61/46/62 51/37/52
f 53/39/53 63/48/63 62/47/61 52/38/51
f 54/40/54 64/49/64 63/48/63 53/39/53
f 55/41/55 65/50/65 64/49/64 54/40/54
f 56/42/56 66/51/66 65/50/65 55/41/55
f 57/43/57 67/52/67 66/51/66 56/42/56
f 58/620/58 68/617/68 67/52/67 57/43/57
f 59/44/59 69/53/69 68/639/68 58/643/58
f 60/45/60 70/54/70 69/53/69 59/44/59
f 51/37/52 61/46/62 70/54/70 60/45/60
f 62/47/61 72/56/71 71/55/72 61/46/62
f 63/48/63 73/57/73 72/56/71 62/47/61
f 64/49/64 74/58/74 73/57/73 63/48/63
f 65/50/65 75/59/75 74/58/74 64/49/64
f 66/51/66 76/60/76 75/59/75 65/50/65
f 67/52/67 77/61/77 76/60/76 66/51/66
f 68/617/68 78/618/78 77/61/77 67/52/67
f 69/53/69 79/62/79 78/638/78 68/639/68
f 70/54/70 80/63/80 79/62/79 69/53/69
f 61/46/62 71/55/72 80/63/80 70/54/70
f 72/56/71 82/65/81 81/64/82 71/55/72
f 73/57/73 83/66/83 82/65/81 72/56/71
f 74/58/74 84/67/84 83/66/83 73/57/73
f 75/59/75 85/68/85 84/67/84 74/58/74
f 76/60/76 86/69/86 85/68/85 75/59/75
f 77/61/77 87/70/87 86/69/86 76/60/76
f 78/618/78 88/619/88 87/70/87 77/61/77
f 79/62/79 89/71/89 88/642/88 78/638/78
f 80/63/80 90/72/90 89/71/89 79/62/79
f 71/55/72 81/64/82 90/72/90 80/63/80
f 82/65/81 92/633/91 91/635/92 81/64/82
f 83/66/83 93/630/93 92/633/91 82/65/81
f 84/67/84 94/628/94 93/630/93 83/66/83
f 85/68/85 95/626/95 94/628/94 84/67/84
f 86/69/86 96/624/96 95/626/95 85/68/85
f 87/70/87 97/622/97 96/624/96 86/69/86
f 88/619/88 98/621/98 97/622/97 87/70/87
f 89/71/89 99/641/99 98/645/98 88/642/88
f 90/72/90 100/637/100 99/641/99 89/71/89
f 81/64/82 91/635/92 100/637/100 90/72/90
f 2/600/1 101/73/101 102/74/102 3/599/5
f 103/75/103 104/76/104 97/611/97 98/612/98
f 3/599/5 102/74/102 5/597/9 4/598/7
f 2/600/1 1/603/4 10/604/19 101/73/101
f 101/73/101 10/604/19 9/606/17 8/605/15
f 102/74/102 101/73/101 8/605/15 7/601/13
f 5/597/9 102/74/102 7/601/13 6/602/11
f 100/613/100 103/75/103 98/612/98 99/616/99
f 97/611/97 104/76/104 95/610/95 96/615/96
f 92/607/91 103/75/103 100/613/100 91/614/92
f 92/607/91 93/608/93 104/76/104 103/75/103
f 95/610/95 104/76/104 93/608/93 94/609/94
s 2
f 105/554/105 106/556/106 116/555/107 115/77/108
f 106/535/106 107/528/109 117/78/110 116/530/107
f 107/528/109 108/529/111 118/79/112 117/78/110
f 108/529/111 109/534/113 119/80/114 118/79/112
f 109/534/113 110/539/115 120/81/116 119/80/114
f 110/539/115 111/543/117 121/82/118 120/81/116
f 111/543/117 112/547/119 122/83/120 121/82/118
f 112/547/119 113/550/121 123/84/122 122/83/120
f 113/550/121 114/552/123 124/85/124 123/84/122
f 114/552/123 105/554/105 115/77/108 124/85/124
f 115/77/108 116/555/107 126/553/125 125/86/126
f 116/530/107 117/78/110 127/87/127 126/526/125
f 117/78/110 118/79/112 128/88/128 127/87/127
f 118/79/112 119/80/114 129/89/129 128/88/128
f 119/80/114 120/81/116 130/90/130 129/89/129
f 120/81/116 121/82/118 131/91/131 130/90/130
f 121/82/118 122/83/120 132/92/132 131/91/131
f 122/83/120 123/84/122 133/93/133 132/92/132
f 123/84/122 124/85/124 134/94/134 133/93/133
f 124/85/124 115/77/108 125/86/126 134/94/134
f 125/86/126 126/553/125 136/551/135 135/95/136
f 126/526/125 127/87/127 137/96/137 136/524/135
f 127/87/127 128/88/128 138/97/138 137/96/137
f 128/88/128 129/89/129 139/98/139 138/97/138
f 129/89/129 130/90/130 140/99/140 139/98/139
f 130/90/130 131/91/131 141/100/141 140/99/140
f 131/91/131 132/92/132 142/101/142 141/100/141
f 132/92/132 133/93/133 143/102/143 142/101/142
f 133/93/133 134/94/134 144/103/144 143/102/143
f 134/94/134 125/86/126 135/95/136 144/103/144
f 135/95/136 136/551/135 146/548/145 145/104/146
f 136/524/135 137/96/137 147/105/147 146/521/145
f 137/96/137 138/97/138 148/106/148 147/105/147
f 138/97/138 139/98/139 149/107/149 148/106/148
f 139/98/139 140/99/140 150/108/150 149/107/149
f 140/99/140 141/100/141 151/109/151 150/108/150
f 141/100/141 142/101/142 152/110/152 151/109/151
f 142/101/142 143/102/143 153/111/153 152/110/152
f 143/102/143 144/103/144 154/112/154 153/111/153
f 144/103/144 135/95/136 145/104/146 154/112/154
f 145/104/146 146/548/145 156/544/155 155/113/156
f 146/521/145 147/105/147 157/114/157 156/517/155
f 147/105/147 148/106/148 158/115/158 157/114/157
f 148/106/148 149/107/149 159/116/159 158/115/158
f 149/107/149 150/108/150 160/117/160 159/116/159
f 150/108/150 151/109/151 161/118/161 160/117/160
f 151/109/151 152/110/152 162/119/162 161/118/161
f 152/110/152 153/111/153 163/120/163 162/119/162
f 153/111/153 154/112/154 164/121/164 163/120/163
f 154/112/154 145/104/146 155/113/156 164/121/164
f 155/113/156 156/544/155 166/540/165 165/122/166
f 156/517/155 157/114/157 167/123/167 166/515/165
f 157/114/157 158/115/158 168/124/168 167/123/167
f 158/115/158 159/116/159 169/125/169 168/124/168
f 159/116/159 160/117/160 170/126/170 169/125/169
f 160/117/160 161/118/161 171/127/171 170/126/170
f 161/118/161 162/119/162 172/128/172 171/127/171
f 162/119/162 163/120/163 173/129/173 172/128/172
f 163/120/163 164/121/164 174/130/174 173/129/173
f 164/121/164 155/113/156 165/122/166 174/130/174
f 165/122/166 166/540/165 176/536/175 175/131/176
f 166/515/165 167/123/167 177/132/177 176/513/175
f 167/123/167 168/124/168 178/133/178 177/132/177
f 168/124/168 169/125/169 179/134/179 178/133/178
f 169/125/169 170/126/170 180/135/180 179/134/179
f 170/126/170 171/127/171 181/136/181 180/135/180
f 171/127/171 172/128/172 182/137/182 181/136/181
f 172/128/172 173/129/173 183/138/183 182/137/182
f 173/129/173 174/130/174 184/139/184 183/138/183
f 174/130/174 165/122/166 175/131/176 184/139/184
f 175/131/176 176/536/175 186/531/185 185/140/186
f 176/513/175 177/132/177 187/141/187 186/512/185
f 177/132/177 178/133/178 188/142/188 187/141/187
f 178/133/178 179/134/179 189/143/189 188/142/188
f 179/134/179 180/135/180 190/144/190 189/143/189
f 180/135/180 181/136/181 191/145/191 190/144/190
f 181/136/181 182/137/182 192/146/192 191/145/191
f 182/137/182 183/138/183 193/147/193 192/146/192
f 183/138/183 184/139/184 194/148/194 193/147/193
f 184/139/184 175/131/176 185/140/186 194/148/194
f 185/140/186 186/531/185 196/532/195 195/149/196
f 186/512/185 187/141/187 197/150/197 196/511/195
f 187/141/187 188/142/188 198/151/198 197/150/197
f 188/142/188 189/143/189 199/152/199 198/151/198
f 189/143/189 190/144/190 200/153/200 199/152/199
f 190/144/190 191/145/191 201/154/201 200/153/200
f 191/145/191 192/146/192 202/155/202 201/154/201
f 192/146/192 193/147/193 203/156/203 202/155/202
f 193/147/193 194/148/194 204/157/204 203/156/203
f 194/148/194 185/140/186 195/149/196 204/157/204
f 195/149/196 196/532/195 206/537/205 205/158/206
f 196/511/195 197/150/197 207/159/207 206/514/205
f 197/150/197 198/151/198 208/160/208 207/159/207
f 198/151/198 199/152/199 209/161/209 208/160/208
f 199/152/199 200/153/200 210/162/210 209/161/209
f 200/153/200 201/154/201 211/163/211 210/162/210
f 201/154/201 202/155/202 212/164/212 211/163/211
f 202/155/202 203/156/203 213/165/213 212/164/212
f 203/156/203 204/157/204 214/166/214 213/165/213
f 204/157/204 195/149/196 205/158/206 214/166/214
f 205/158/206 206/537/205 216/541/215 215/167/216
f 206/514/205 207/159/207 217/168/217 216/516/215
f 207/159/207 208/160/208 218/169/218 217/168/217
f 208/160/208 209/161/209 219/170/219 218/169/218
f 209/161/209 210/162/210 220/171/220 219/170/219
f 210/162/210 211/163/211 221/172/221 220/171/220
f 211/163/211 212/164/212 222/173/222 221/172/221
f 212/164/212 213/165/213 223/174/223 222/173/222
f 213/165/213 214/166/214 224/175/224 223/174/223
f 214/166/214 205/158/206 215/167/216 224/175/224
f 215/167/216 216/541/215 226/545/225 225/176/226
f 216/516/215 217/168/217 227/177/227 226/520/225
f 217/168/217 218/169/218 228/178/228 227/177/227
f 218/169/218 219/170/219 229/179/229 228/178/228
f 219/170/219 220/171/220 230/180/230 229/179/229
f 220/171/220 221/172/221 231/181/231 230/180/230
f 221/172/221 222/173/222 232/182/232 231/181/231
f 222/173/222 223/174/223 233/183/233 232/182/232
f 223/174/223 224/175/224 234/184/234 233/183/233
f 224/175/224 215/167/216 225/176/226 234/184/234
f 226/545/225 236/549/235 235/546/236 225/176/226
f 227/177/227 237/519/237 236/523/235 226/520/225
f 228/178/228 238/518/238 237/519/237 227/177/227
f 229/179/229 239/522/239 238/518/238 228/178/228
f 230/180/230 240/525/240 239/522/239 229/179/229
f 231/181/231 241/527/241 240/525/240 230/180/230
f 232/182/232 242/533/242 241/527/241 231/181/231
f 233/183/233 243/538/243 242/533/242 232/182/232
f 234/184/234 244/542/244 243/538/243 233/183/233
f 225/176/226 235/546/236 244/542/244 234/184/234
f 236/504/235 246/186/245 245/185/246 235/506/236
f 237/501/237 247/187/247 246/186/245 236/504/235
f 238/502/238 248/188/248 247/187/247 237/501/237
f 239/503/239 249/189/249 248/188/248 238/502/238
f 240/505/240 250/190/250 249/189/249 239/503/239
f 241/507/241 251/191/251 250/190/250 240/505/240
f 242/509/242 252/192/252 251/191/251 241/507/241
f 243/510/243 253/193/253 252/192/252 242/509/242
f 244/508/244 254/194/254 253/193/253 243/510/243
f 235/506/236 245/185/246 254/194/254 244/508/244
f 246/186/245 256/196/255 255/195/256 245/185/246
f 247/187/247 257/197/257 256/196/255 246/186/245
f 248/188/248 258/198/258 257/197/257 247/187/247
f 249/189/249 259/199/259 258/198/258 248/188/248
f 250/190/250 260/200/260 259/199/259 249/189/249
f 251/191/251 261/201/261 260/200/260 250/190/250
f 252/192/252 262/202/262 261/201/261 251/191/251
f 253/193/253 263/203/263 262/202/262 252/192/252
f 254/194/254 264/204/264 263/203/263 253/193/253
f 245/185/246 255/195/256 264/204/264 254/194/254
f 106/492/106 265/205/265 266/206/266 107/491/109
f 267/207/267 268/208/268 261/201/261 262/202/262
f 107/491/109 266/206/266 109/497/113 108/498/111
f 106/492/106 105/493/105 114/494/123 265/205/265
f 265/205/265 114/494/123 113/499/121 112/495/119
f 266/206/266 265/205/265 112/495/119 111/496/117
f 109/497/113 266/206/266 111/496/117 110/500/115
f 264/204/264 267/207/267 262/202/262 263/203/263
f 261/201/261 268/208/268 259/199/259 260/200/260
f 256/196/255 267/207/267 264/204/264 255/195/256
f 256/196/255 257/197/257 268/208/268 267/207/267
f 259/199/259 268/208/268 257/197/257 258/198/258
s 3
f 269/209/269 270/806/270 300/801/271 293/221/272
f 270/792/270 271/210/273 299/226/274 300/790/271
f 271/210/273 272/211/275 298/225/276 299/226/274
f 272/211/275 273/212/277 297/224/278 298/225/276
f 273/212/277 274/785/279 296/783/280 297/224/278
f 274/810/279 275/213/281 295/223/282 296/807/280
f 275/213/281 276/214/283 294/222/284 295/223/282
f 276/214/283 269/209/269 293/221/272 294/222/284
f 273/212/277 301/791/285 274/785/279
f 286/216/286 285/215/287 302/227/288 303/228/289
f 287/217/290 286/216/286 303/228/289 304/229/291
f 288/805/292 287/217/290 304/229/291 305/804/293
f 289/218/294 288/784/292 305/786/293 306/230/295
f 290/219/296 289/218/294 306/230/295 307/231/297
f 291/220/298 290/219/296 307/231/297 308/232/299
f 292/789/300 291/220/298 308/232/299 309/795/301
f 285/215/287 292/797/300 309/798/301 302/227/288
f 294/222/284 293/221/272 285/215/287 286/216/286
f 295/223/282 294/222/284 286/216/286 287/217/290
f 296/807/280 295/223/282 287/217/290 288/805/292
f 297/224/278 296/783/280 288/784/292 289/218/294
f 298/225/276 297/224/278 289/218/294 290/219/296
f 299/226/274 298/225/276 290/219/296 291/220/298
f 300/790/271 299/226/274 291/220/298 292/789/300
f 293/221/272 300/801/271 292/797/300 285/215/287
f 301/809/285 276/214/283 275/213/281
f 271/210/273 301/791/285 272/211/275
f 270/806/270 269/209/269 301/809/285
f 272/211/275 301/791/285 273/212/277
f 270/792/270 301/791/285 271/210/273
f 301/809/285 269/209/269 276/214/283
f 301/809/285 275/213/281 274/810/279
f 303/228/289 302/227/288 277/799/302 284/800/303
f 304/229/291 303/228/289 284/800/303 283/803/304
f 305/804/293 304/229/291 283/803/304 282/808/305
f 306/230/295 305/786/293 282/793/305 281/787/306
f 307/231/297 306/230/295 281/787/306 280/788/307
f 308/232/299 307/231/297 280/788/307 279/794/308
f 309/795/301 308/232/299 279/794/308 278/796/309
f 302/227/288 309/798/301 278/802/309 277/799/302
s 4
f 310/840/310 311/837/311 328/240/312 329/841/313
f 311/837/311 312/834/314 327/239/315 328/240/312
f 312/834/314 313/835/316 326/238/317 327/239/315
f 313/835/316 314/836/318 325/237/319 326/238/317
f 314/836/318 315/838/320 324/839/321 325/237/319
f 311/827/311 310/828/310 322/829/322
f 312/830/314 311/827/311 322/829/322
f 313/831/316 312/830/314 322/829/322
f 314/832/318 313/831/316 322/829/322
f 315/833/320 314/832/318 322/829/322
f 316/843/323 317/233/324 323/844/325
f 317/233/324 318/234/326 323/844/325
f 318/234/326 319/235/327 323/844/325
f 319/235/327 320/236/328 323/844/325
f 320/236/328 321/842/329 323/844/325
f 325/237/319 324/839/321 321/842/329 320/236/328
f 326/238/317 325/237/319 320/236/328 319/235/327
f 327/239/315 326/238/317 319/235/327 318/234/326
f 328/240/312 327/239/315 318/234/326 317/233/324
f 329/841/313 328/240/312 317/233/324 316/843/323
s 5
f 323/826/330 330/241/331 316/825/332
f 329/823/333 331/242/334 322/821/335 310/822/336
f 329/823/333 316/825/332 330/241/331 331/242/334
f 321/824/337 330/241/331 323/826/330
f 331/242/334 330/241/331 321/824/337 324/819/338
f 322/821/335 331/242/334 324/819/338 315/820/339
s 6
f 332/856/340 351/857/341 350/250/342 333/854/343
f 333/854/343 350/250/342 349/249/344 334/853/345
f 334/853/345 349/249/344 348/248/346 335/852/347
f 335/852/347 348/248/346 347/247/348 336/855/349
f 336/855/349 347/247/348 346/858/350 337/859/351
f 333/850/343 344/848/352 332/851/340
f 334/849/345 344/848/352 333/850/343
f 335/845/347 344/848/352 334/849/345
f 336/846/349 344/848/352 335/845/347
f 337/847/351 344/848/352 336/846/349
f 338/860/353 345/862/354 339/243/355
f 339/243/355 345/862/354 340/244/356
f 340/244/356 345/862/354 341/245/357
f 341/245/357 345/862/354 342/246/358
f 342/246/358 345/862/354 343/861/359
f 347/247/348 342/246/358 343/861/359 346/858/350
f 348/248/346 341/245/357 342/246/358 347/247/348
f 349/249/344 340/244/356 341/245/357 348/248/346
f 350/250/342 339/243/355 340/244/356 349/249/344
f 351/857/341 338/860/353 339/243/355 350/250/342
s 8
f 351/811/360 352/251/361 353/252/362 338/816/363
f 351/811/360 332/812/364 344/813/365 352/251/361
f 338/816/363 353/252/362 345/818/366
f 352/251/361 344/813/365 337/814/367 346/815/368
f 353/252/362 352/251/361 346/815/368 343/817/369
f 345/818/366 353/252/362 343/817/369
s 9
f 354/575/370 355/572/371 371/260/372 372/576/373
f 355/572/371 356/573/374 370/259/375 371/260/372
f 356/573/374 357/574/376 369/258/377 370/259/375
f 357/574/376 358/577/378 368/257/379 369/258/377
f 358/577/378 359/580/380 367/581/381 368/257/379
f 355/567/371 354/569/370 366/570/382
f 356/566/374 355/567/371 366/570/382
f 357/565/376 356/566/374 366/570/382
f 358/568/378 357/565/376 366/570/382
f 359/571/380 358/568/378 366/570/382
f 368/257/379 367/581/381 365/582/383 364/256/384
f 369/258/377 368/257/379 364/256/384 363/255/385
f 370/259/375 369/258/377 363/255/385 362/254/386
f 371/260/372 370/259/375 362/254/386 361/253/387
f 372/576/373 371/260/372 361/253/387 360/579/388
f 373/563/389 374/261/390 372/561/373 360/564/388
f 372/561/373 374/261/390 366/559/382 354/560/370
f 373/578/389 362/254/386 363/255/385
f 373/578/389 363/255/385 364/256/384 365/582/383
f 361/253/387 362/254/386 373/578/389 360/579/388
f 365/562/383 367/557/381 374/261/390 373/563/389
f 366/559/382 374/261/390 367/557/381 359/558/380
s 10
f 385/264/391 393/272/392 386/265/393 387/266/394
f 388/267/395 391/270/396 385/264/391 387/266/394
f 389/268/397 390/269/398 391/270/396 388/267/395
f 391/270/396 390/269/398 392/271/399
f 393/272/392 385/264/391 391/270/396
f 380/262/400 379/586/401 378/589/402 384/590/403
f 381/585/404 379/586/401 380/262/400 382/263/405
f 375/588/406 381/585/404 382/263/405 377/584/407
f 382/263/405 380/262/400 383/583/408 377/584/407
f 383/583/408 380/262/400 384/590/403 376/587/409
f 384/590/403 378/591/402 386/265/393 393/272/392
f 378/591/402 379/593/401 387/266/394 386/265/393
f 379/593/401 381/595/404 388/267/395 387/266/394
f 381/595/404 375/596/406 389/268/397 388/267/395
f 375/596/406 377/594/407 390/269/398 389/268/397
f 377/594/407 383/592/408 392/271/399 390/269/398
f 383/592/408 376/587/409 391/270/396 392/271/399
f 376/587/409 384/590/403 393/272/392 391/270/396
s 12
f 394/776/410 412/777/411 411/280/412 395/774/413
f 395/774/413 411/280/412 410/279/414 396/773/415
f 396/773/415 410/279/414 409/278/416 397/772/417
f 397/772/417 409/278/416 408/277/418 398/775/419
f 398/775/419 408/277/418 407/778/420 399/779/421
f 395/770/413 406/768/422 394/771/410
f 396/769/415 406/768/422 395/770/413
f 397/765/417 406/768/422 396/769/415
f 398/766/419 406/768/422 397/765/417
f 399/767/421 406/768/422 398/766/419
f 408/277/418 404/276/423 405/782/424 407/778/420
f 409/278/416 403/275/425 404/276/423 408/277/418
f 410/279/414 402/274/426 403/275/425 409/278/416
f 411/280/412 401/273/427 402/274/426 410/279/414
f 412/777/411 400/780/428 401/273/427 411/280/412
f 413/761/429 400/764/428 412/762/411 414/281/430
f 412/762/411 394/763/410 406/757/422 414/281/430
f 413/781/429 403/275/425 402/274/426
f 413/781/429 405/782/424 404/276/423 403/275/425
f 401/273/427 400/780/428 413/781/429 402/274/426
f 405/760/424 413/761/429 414/281/430 407/759/420
f 406/757/422 399/758/421 407/759/420 414/281/430
s 13
f 425/284/431 427/286/432 426/285/433 433/292/434
f 428/287/435 427/286/432 425/284/431 431/290/436
f 429/288/437 428/287/435 431/290/436 430/289/438
f 431/290/436 432/291/439 430/289/438
f 433/292/434 431/290/436 425/284/431
f 420/282/440 424/749/441 418/750/442 419/748/443
f 421/746/444 422/283/445 420/282/440 419/748/443
f 415/745/446 417/743/447 422/283/445 421/746/444
f 422/283/445 417/743/447 423/744/448 420/282/440
f 423/744/448 416/747/449 424/749/441 420/282/440
f 424/749/441 433/292/434 426/285/433 418/752/442
f 418/752/442 426/285/433 427/286/432 419/754/443
f 419/754/443 427/286/432 428/287/435 421/756/444
f 421/756/444 428/287/435 429/288/437 415/755/446
f 415/755/446 429/288/437 430/289/438 417/753/447
f 417/753/447 430/289/438 432/291/439 423/751/448
f 423/751/448 432/291/439 431/290/436 416/747/449
f 416/747/449 431/290/436 433/292/434 424/749/441
s 15
f 467/312/450 481/326/451 459/304/452 458/303/453
f 459/304/452 460/305/454 465/310/455 458/303/453
f 460/305/454 461/306/456 462/307/457 465/310/455
f 462/307/457 463/308/458 464/309/459 465/310/455
f 465/310/455 464/309/459 466/311/460 458/303/453
f 466/311/460 476/321/461 467/312/450 458/303/453
f 463/308/458 468/313/462 469/314/463 464/309/459
f 468/313/462 470/315/464 471/316/465 469/314/463
f 469/314/463 471/316/465 472/317/466 475/320/467
f 472/317/466 473/318/468 474/319/469 475/320/467
f 475/320/467 474/319/469 476/321/461 466/311/460
f 464/309/459 469/314/463 475/320/467 466/311/460
f 474/319/469 473/318/468 477/322/470 480/325/471
f 477/322/470 478/323/472 479/324/473 480/325/471
f 480/325/471 479/324/473 481/326/451 467/312/450
f 476/321/461 474/319/469 480/325/471 467/312/450
f 447/297/474 442/293/475 441/440/476 457/444/477
f 441/440/476 442/293/475 445/295/478 439/439/479
f 439/439/479 445/295/478 443/441/480 434/445/481
f 443/441/480 445/295/478 444/294/482 437/438/483
f 445/295/478 442/293/475 446/296/484 444/294/482
f 446/296/484 442/293/475 447/297/474 453/301/485
f 437/438/483 444/294/482 449/298/486 440/437/487
f 440/437/487 449/298/486 448/436/488 435/443/489
f 449/298/486 452/300/490 450/435/491 448/436/488
f 450/435/491 452/300/490 451/299/492 438/442/493
f 452/300/490 446/296/484 453/301/485 451/299/492
f 444/294/482 446/296/484 452/300/490 449/298/486
f 451/299/492 456/302/494 454/447/495 438/442/493
f 454/447/495 456/302/494 455/446/496 436/448/497
f 456/302/494 447/297/474 457/444/477 455/446/496
f 453/301/485 447/297/474 456/302/494 451/299/492
f 457/475/477 441/470/476 459/304/452 481/326/451
f 441/470/476 439/471/479 460/305/454 459/304/452
f 439/471/479 434/472/481 461/306/456 460/305/454
f 434/472/481 443/468/480 462/307/457 461/306/456
f 443/468/480 437/463/483 463/308/458 462/307/457
f 437/463/483 440/464/487 468/313/462 463/308/458
f 440/464/487 435/467/489 470/315/464 468/313/462
f 435/467/489 448/465/488 471/316/465 470/315/464
f 448/465/488 450/466/491 472/317/466 471/316/465
f 450/466/491 438/469/493 473/318/468 472/317/466
f 438/469/493 454/473/495 477/322/470 473/318/468
f 454/473/495 436/476/497 478/323/472 477/322/470
f 436/476/497 455/474/496 479/324/473 478/323/472
f 455/474/496 457/475/477 481/326/451 479/324/473
s 17
f 515/346/498 506/337/499 507/338/500 529/360/501
f 507/338/500 506/337/499 513/344/502 508/339/503
f 508/339/503 513/344/502 510/341/504 509/340/505
f 510/341/504 513/344/502 512/343/506 511/342/507
f 513/344/502 506/337/499 514/345/508 512/343/506
f 514/345/508 506/337/499 515/346/498 524/355/509
f 511/342/507 512/343/506 517/348/510 516/347/511
f 516/347/511 517/348/510 519/350/512 518/349/513
f 517/348/510 523/354/514 520/351/515 519/350/512
f 520/351/515 523/354/514 522/353/516 521/352/517
f 523/354/514 514/345/508 524/355/509 522/353/516
f 512/343/506 514/345/508 523/354/514 517/348/510
f 522/353/516 528/359/518 525/356/519 521/352/517
f 525/356/519 528/359/518 527/358/520 526/357/521
f 528/359/518 515/346/498 529/360/501 527/358/520
f 524/355/509 515/346/498 528/359/518 522/353/516
f 495/331/522 505/462/523 489/459/524 490/327/525
f 489/459/524 487/460/526 493/329/527 490/327/525
f 487/460/526 482/461/528 491/456/529 493/329/527
f 491/456/529 485/454/530 492/328/531 493/329/527
f 493/329/527 492/328/531 494/330/532 490/327/525
f 494/330/532 501/335/533 495/331/522 490/327/525
f 485/454/530 488/451/534 497/332/535 492/328/531
f 488/451/534 483/452/536 496/449/537 497/332/535
f 497/332/535 496/449/537 498/450/538 500/334/539
f 498/450/538 486/453/540 499/333/541 500/334/539
f 500/334/539 499/333/541 501/335/533 494/330/532
f 492/328/531 497/332/535 500/334/539 494/330/532
f 499/333/541 486/453/540 502/455/542 504/336/543
f 502/455/542 484/457/544 503/458/545 504/336/543
f 504/336/543 503/458/545 505/462/523 495/331/522
f 501/335/533 499/333/541 504/336/543 495/331/522
f 505/477/523 529/360/501 507/338/500 489/481/524
f 489/481/524 507/338/500 508/339/503 487/484/526
f 487/484/526 508/339/503 509/340/505 482/489/528
f 482/489/528 509/340/505 510/341/504 491/486/529
f 491/486/529 510/341/504 511/342/507 485/485/530
f 485/485/530 511/342/507 516/347/511 488/488/534
f 488/488/534 516/347/511 518/349/513 483/490/536
f 483/490/536 518/349/513 519/350/512 496/487/537
f 496/487/537 519/350/512 520/351/515 498/483/538
f 498/483/538 520/351/515 521/352/517 486/480/540
f 486/480/540 521/352/517 525/356/519 502/479/542
f 502/479/542 525/356/519 526/357/521 484/482/544
f 484/482/544 526/357/521 527/358/520 503/478/545
f 503/478/545 527/358/520 529/360/501 505/477/523
s 19
f 530/701/546 531/703/547 539/362/548 538/361/549
f 531/703/547 532/707/550 540/704/551 539/362/548
f 532/689/550 533/690/552 541/363/553 540/688/551
f 533/690/552 534/692/554 542/364/555 541/363/553
f 534/692/554 535/694/556 543/365/557 542/364/555
f 535/694/556 536/696/558 544/366/559 543/365/557
f 536/696/558 537/699/560 545/367/561 544/366/559
f 537/699/560 530/701/546 538/361/549 545/367/561
f 538/361/549 539/362/548 547/369/562 546/368/563
f 539/362/548 540/704/551 548/705/564 547/369/562
f 540/688/551 541/363/553 549/370/565 548/687/564
f 541/363/553 542/364/555 550/371/566 549/370/565
f 542/364/555 543/365/557 551/372/567 550/371/566
f 543/365/557 544/366/559 552/373/568 551/372/567
f 544/366/559 545/367/561 553/374/569 552/373/568
f 545/367/561 538/361/549 546/368/563 553/374/569
f 546/368/563 547/369/562 555/376/570 554/375/571
f 547/369/562 548/705/564 556/708/572 555/376/570
f 548/687/564 549/370/565 557/377/573 556/691/572
f 549/370/565 550/371/566 558/378/574 557/377/573
f 550/371/566 551/372/567 559/379/575 558/378/574
f 551/372/567 552/373/568 560/380/576 559/379/575
f 552/373/568 553/374/569 561/381/577 560/380/576
f 553/374/569 546/368/563 554/375/571 561/381/577
f 554/375/571 555/376/570 563/383/578 562/382/579
f 555/376/570 556/708/572 564/710/580 563/383/578
f 556/691/572 557/377/573 565/384/581 564/693/580
f 557/377/573 558/378/574 566/385/582 565/384/581
f 558/378/574 559/379/575 567/386/583 566/385/582
f 559/379/575 560/380/576 568/387/584 567/386/583
f 560/380/576 561/381/577 569/388/585 568/387/584
f 561/381/577 554/375/571 562/382/579 569/388/585
f 562/382/579 563/383/578 571/390/586 570/389/587
f 563/383/578 564/710/580 572/712/588 571/390/586
f 564/693/580 565/384/581 573/391/589 572/695/588
f 565/384/581 566/385/582 574/392/590 573/391/589
f 566/385/582 567/386/583 575/393/591 574/392/590
f 567/386/583 568/387/584 576/394/592 575/393/591
f 568/387/584 569/388/585 577/395/593 576/394/592
f 569/388/585 562/382/579 570/389/587 577/395/593
f 570/389/587 571/390/586 579/713/594 578/711/595
f 571/390/586 572/712/588 580/714/596 579/713/594
f 572/695/588 573/391/589 581/697/597 580/698/596
f 573/391/589 574/392/590 582/700/598 581/697/597
f 574/392/590 575/393/591 583/702/599 582/700/598
f 575/393/591 576/394/592 584/706/600 583/702/599
f 576/394/592 577/395/593 585/709/601 584/706/600
f 577/395/593 570/389/587 578/711/595 585/709/601
f 531/679/547 530/680/546 586/396/602
f 532/682/550 531/679/547 586/396/602
f 533/684/552 532/682/550 586/396/602
f 534/686/554 533/684/552 586/396/602
f 535/685/556 534/686/554 586/396/602
f 536/683/558 535/685/556 586/396/602
f 537/681/560 536/683/558 586/396/602
f 530/680/546 537/681/560 586/396/602
f 578/658/595 579/655/594 587/397/603
f 579/655/594 580/656/596 587/397/603
f 580/656/596 581/657/597 587/397/603
f 581/657/597 582/659/598 587/397/603
f 582/659/598 583/661/599 587/397/603
f 583/661/599 584/662/600 587/397/603
f 584/662/600 585/660/601 587/397/603
f 585/660/601 578/658/595 587/397/603
s 20
f 588/725/604 596/398/605 597/399/606 589/729/607
f 589/729/607 597/399/606 598/732/608 590/733/609
f 590/717/609 598/718/608 599/400/610 591/716/611
f 591/716/611 599/400/610 600/401/612 592/715/613
f 592/715/613 600/401/612 601/402/614 593/719/615
f 593/719/615 601/402/614 602/403/616 594/721/617
f 594/721/617 602/403/616 603/404/618 595/723/619
f 595/723/619 603/404/618 596/398/605 588/725/604
f 596/398/605 604/405/620 605/406/621 597/399/606
f 597/399/606 605/406/621 606/735/622 598/732/608
f 598/718/608 606/720/622 607/407/623 599/400/610
f 599/400/610 607/407/623 608/408/624 600/401/612
f 600/401/612 608/408/624 609/409/625 601/402/614
f 601/402/614 609/409/625 610/410/626 602/403/616
f 602/403/616 610/410/626 611/411/627 603/404/618
f 603/404/618 611/411/627 604/405/620 596/398/605
f 604/405/620 612/412/628 613/413/629 605/406/621
f 605/406/621 613/413/629 614/737/630 606/735/622
f 606/720/622 614/722/630 615/414/631 607/407/623
f 607/407/623 615/414/631 616/415/632 608/408/624
f 608/408/624 616/415/632 617/416/633 609/409/625
f 609/409/625 617/416/633 618/417/634 610/410/626
f 610/410/626 618/417/634 619/418/635 611/411/627
f 611/411/627 619/418/635 612/412/628 604/405/620
f 612/412/628 620/419/636 621/420/637 613/413/629
f 613/413/629 621/420/637 622/739/638 614/737/630
f 614/722/630 622/724/638 623/421/639 615/414/631
f 615/414/631 623/421/639 624/422/640 616/415/632
f 616/415/632 624/422/640 625/423/641 617/416/633
f 617/416/633 625/423/641 626/424/642 618/417/634
f 618/417/634 626/424/642 627/425/643 619/418/635
f 619/418/635 627/425/643 620/419/636 612/412/628
f 620/419/636 628/426/644 629/427/645 621/420/637
f 621/420/637 629/427/645 630/741/646 622/739/638
f 622/724/638 630/726/646 631/428/647 623/421/639
f 623/421/639 631/428/647 632/429/648 624/422/640
f 624/422/640 632/429/648 633/430/649 625/423/641
f 625/423/641 633/430/649 634/431/650 626/424/642
f 626/424/642 634/431/650 635/432/651 627/425/643
f 627/425/643 635/432/651 628/426/644 620/419/636
f 628/426/644 636/738/652 637/740/653 629/427/645
f 629/427/645 637/740/653 638/742/654 630/741/646
f 630/726/646 638/730/654 639/727/655 631/428/647
f 631/428/647 639/727/655 640/728/656 632/429/648
f 632/429/648 640/728/656 641/731/657 633/430/649
f 633/430/649 641/731/657 642/734/658 634/431/650
f 634/431/650 642/734/658 643/736/659 635/432/651
f 635/432/651 643/736/659 636/738/652 628/426/644
f 589/673/607 644/433/660 588/672/604
f 590/675/609 644/433/660 589/673/607
f 591/677/611 644/433/660 590/675/609
f 592/678/613 644/433/660 591/677/611
f 593/676/615 644/433/660 592/678/613
f 594/674/617 644/433/660 593/676/615
f 595/671/619 644/433/660 594/674/617
f 588/672/604 644/433/660 595/671/619
f 636/666/652 645/434/661 637/668/653
f 637/668/653 645/434/661 638/670/654
f 638/670/654 645/434/661 639/669/655
f 639/669/655 645/434/661 640/667/656
f 640/667/656 645/434/661 641/665/657
f 641/665/657 645/434/661 642/664/658
f 642/664/658 645/434/661 643/663/659
f 643/663/659 645/434/661 636/666/652
# totals: 645 862 661 656
